<svg xmlns="http://www.w3.org/2000/svg" width="766.5999999999999" height="240"><polygon points="20.0 40 20.0 20 624.8 20 624.8 40" fill="#4C72B7"/><rect x="123.2" y="20" width="1.2" height="20" fill="lime"/><rect x="170.0" y="20" width="1.2" height="20" fill="lime"/><rect x="98.0" y="20" width="1.2" height="20" fill="lime"/><rect x="563.6" y="20" width="1.2" height="20" fill="red"/><rect x="47.599999999999994" y="20" width="1.2" height="20" fill="black"/><rect x="84.8" y="20" width="1.2" height="20" fill="black"/><rect x="102.8" y="20" width="1.2" height="20" fill="black"/><rect x="168.79999999999998" y="20" width="1.2" height="20" fill="black"/><rect x="207.2" y="20" width="1.2" height="20" fill="black"/><rect x="208.4" y="20" width="1.2" height="20" fill="black"/><rect x="222.79999999999998" y="20" width="1.2" height="20" fill="black"/><rect x="230.0" y="20" width="1.2" height="20" fill="black"/><rect x="268.4" y="20" width="1.2" height="20" fill="black"/><rect x="308.0" y="20" width="1.2" height="20" fill="black"/><rect x="347.59999999999997" y="20" width="1.2" height="20" fill="black"/><rect x="360.8" y="20" width="1.2" height="20" fill="black"/><rect x="524.0" y="20" width="1.2" height="20" fill="black"/><rect x="545.6" y="20" width="1.2" height="20" fill="black"/><rect x="579.1999999999999" y="20" width="1.2" height="20" fill="black"/><rect x="431.59999999999997" y="20" width="1.2" height="20" fill="black"/><rect x="89.6" y="20" width="1.2" height="20" fill="black"/><text class="exonnr" x="322.4" y="30.0">3</text><polygon points="629.8 40 629.8 20 766.5999999999999 20 766.5999999999999 40" fill="#4C72B7"/><rect x="640.5999999999999" y="20" width="1.2" height="20" fill="lime"/><rect x="664.5999999999999" y="20" width="1.2" height="20" fill="lime"/><rect x="697.0" y="20" width="1.2" height="20" fill="red"/><rect x="675.4" y="20" width="1.2" height="20" fill="black"/><rect x="730.5999999999999" y="20" width="1.2" height="20" fill="black"/><rect x="753.4" y="20" width="1.2" height="20" fill="black"/><rect x="757.0" y="20" width="1.2" height="20" fill="black"/><text class="exonnr" x="698.1999999999999" y="30.0">4</text><polygon points="20.0 80 20.0 60 246.79999999999998 60 246.79999999999998 80" fill="#4C72B7"/><rect x="209.6" y="60" width="1.2" height="20" fill="lime"/><rect x="39.2" y="60" width="1.2" height="20" fill="black"/><rect x="45.2" y="60" width="1.2" height="20" fill="black"/><rect x="56.0" y="60" width="1.2" height="20" fill="black"/><rect x="75.19999999999999" y="60" width="1.2" height="20" fill="black"/><rect x="93.2" y="60" width="1.2" height="20" fill="black"/><rect x="99.2" y="60" width="1.2" height="20" fill="black"/><rect x="110.0" y="60" width="1.2" height="20" fill="black"/><rect x="149.6" y="60" width="1.2" height="20" fill="black"/><rect x="190.4" y="60" width="1.2" height="20" fill="black"/><text class="exonnr" x="133.39999999999998" y="70.0">4</text><polygon points="251.79999999999998 80 251.79999999999998 60 374.0 60 379.0 70.0 374.0 80" fill="#4C72B7"/><rect x="322.59999999999997" y="60" width="1.2" height="20" fill="lime"/><rect x="351.4" y="60" width="1.2" height="20" fill="lime"/><rect x="350.2" y="60" width="1.2" height="20" fill="red"/><rect x="279.4" y="60" width="1.2" height="20" fill="red"/><rect x="375.4" y="60" width="1.2" height="20" fill="red"/><rect x="291.4" y="60" width="1.2" height="20" fill="black"/><rect x="361.0" y="60" width="1.2" height="20" fill="black"/><text class="exonnr" x="315.4" y="70.0">5</text><polygon points="379.0 80 384.0 70.0 379.0 60 384.8 60 389.8 70.0 384.8 80" fill="#4C72B7"/><text class="exonnr" x="384.4" y="70.0">6</text><polygon points="389.8 80 394.8 70.0 389.8 60 503.6 60 508.6 70.0 503.6 80" fill="#4C72B7"/><rect x="487.0" y="60" width="1.2" height="20" fill="lime"/><rect x="443.8" y="60" width="1.2" height="20" fill="red"/><rect x="466.6" y="60" width="1.2" height="20" fill="red"/><rect x="391.0" y="60" width="1.2" height="20" fill="black"/><rect x="400.6" y="60" width="1.2" height="20" fill="black"/><rect x="417.40000000000003" y="60" width="1.2" height="20" fill="black"/><rect x="429.40000000000003" y="60" width="1.2" height="20" fill="black"/><rect x="491.8" y="60" width="1.2" height="20" fill="black"/><rect x="501.4" y="60" width="1.2" height="20" fill="black"/><rect x="467.8" y="60" width="1.2" height="20" fill="black"/><text class="exonnr" x="449.2" y="70.0">7</text><polygon points="508.6 80 513.6 70.0 508.6 60 644.0 60 649.0 70.0 644.0 80" fill="#4C72B7"/><rect x="567.4" y="60" width="1.2" height="20" fill="lime"/><rect x="614.2" y="60" width="1.2" height="20" fill="lime"/><rect x="615.4" y="60" width="1.2" height="20" fill="red"/><rect x="616.6" y="60" width="1.2" height="20" fill="red"/><rect x="575.8000000000001" y="60" width="1.2" height="20" fill="black"/><text class="exonnr" x="578.8000000000001" y="70.0">8</text><polygon points="649.0 80 654.0 70.0 649.0 60 764.2 60 764.2 80" fill="#4C72B7"/><rect x="688.6" y="60" width="1.2" height="20" fill="lime"/><rect x="709.0" y="60" width="1.2" height="20" fill="lime"/><rect x="733.0" y="60" width="1.2" height="20" fill="lime"/><rect x="651.4" y="60" width="1.2" height="20" fill="black"/><rect x="652.6" y="60" width="1.2" height="20" fill="black"/><rect x="663.4" y="60" width="1.2" height="20" fill="black"/><rect x="681.4" y="60" width="1.2" height="20" fill="black"/><rect x="710.2" y="60" width="1.2" height="20" fill="black"/><text class="exonnr" x="706.6" y="70.0">9</text><polygon points="20.0 120 20.0 100 360.8 100 360.8 120" fill="#4C72B7"/><rect x="88.39999999999999" y="100" width="1.2" height="20" fill="lime"/><rect x="305.59999999999997" y="100" width="1.2" height="20" fill="lime"/><rect x="176.0" y="100" width="1.2" height="20" fill="lime"/><rect x="21.2" y="100" width="1.2" height="20" fill="lime"/><rect x="165.2" y="100" width="1.2" height="20" fill="lime"/><rect x="130.39999999999998" y="100" width="1.2" height="20" fill="red"/><rect x="173.6" y="100" width="1.2" height="20" fill="red"/><rect x="208.4" y="100" width="1.2" height="20" fill="red"/><rect x="36.8" y="100" width="1.2" height="20" fill="black"/><rect x="63.199999999999996" y="100" width="1.2" height="20" fill="black"/><rect x="69.19999999999999" y="100" width="1.2" height="20" fill="black"/><rect x="84.8" y="100" width="1.2" height="20" fill="black"/><rect x="90.8" y="100" width="1.2" height="20" fill="black"/><rect x="135.2" y="100" width="1.2" height="20" fill="black"/><rect x="166.4" y="100" width="1.2" height="20" fill="black"/><rect x="220.4" y="100" width="1.2" height="20" fill="black"/><rect x="257.6" y="100" width="1.2" height="20" fill="black"/><rect x="341.59999999999997" y="100" width="1.2" height="20" fill="black"/><text class="exonnr" x="190.4" y="110.0">9</text><polygon points="365.8 120 365.8 100 560.0 100 565.0 110.0 560.0 120" fill="#4C72B7"/><rect x="497.8" y="100" width="1.2" height="20" fill="lime"/><rect x="532.6" y="100" width="1.2" height="20" fill="red"/><rect x="560.2" y="100" width="1.2" height="20" fill="red"/><rect x="387.40000000000003" y="100" width="1.2" height="20" fill="red"/><rect x="461.8" y="100" width="1.2" height="20" fill="red"/><rect x="563.8" y="100" width="1.2" height="20" fill="black"/><text class="exonnr" x="465.4" y="110.0">10</text><polygon points="565.0 120 570.0 110.0 565.0 100 730.4 100 735.4 100 730.4 110.0 735.4 120 730.4 120" fill="#4C72B7"/><rect x="595.0" y="100" width="1.2" height="20" fill="lime"/><rect x="668.2" y="100" width="1.2" height="20" fill="red"/><rect x="658.6" y="100" width="1.2" height="20" fill="black"/><rect x="676.6" y="100" width="1.2" height="20" fill="black"/><text class="exonnr" x="650.2" y="110.0">11</text><polygon points="25.0 160 20.0 150.0 25.0 140 162.6 140 167.6 140 162.6 150.0 167.6 160 162.6 160" fill="#4C72B7"/><rect x="131.6" y="140" width="1.2" height="20" fill="lime"/><rect x="51.2" y="140" width="1.2" height="20" fill="black"/><rect x="147.2" y="140" width="1.2" height="20" fill="black"/><text class="exonnr" x="93.8" y="150.0">12</text><polygon points="172.6 160 167.6 150.0 172.6 140 273.0 140 278.0 150.0 273.0 160" fill="#4C72B7"/><rect x="185.6" y="140" width="1.2" height="20" fill="lime"/><rect x="275.6" y="140" width="1.2" height="20" fill="red"/><rect x="209.6" y="140" width="1.2" height="20" fill="black"/><rect x="274.4" y="140" width="1.2" height="20" fill="black"/><rect x="276.8" y="140" width="1.2" height="20" fill="black"/><text class="exonnr" x="222.79999999999998" y="150.0">13</text><polygon points="278.0 160 283.0 150.0 278.0 140 353.4 140 358.4 140 353.4 150.0 358.4 160 353.4 160" fill="#4C72B7"/><rect x="308.0" y="140" width="1.2" height="20" fill="lime"/><rect x="357.2" y="140" width="1.2" height="20" fill="red"/><text class="exonnr" x="318.2" y="150.0">14</text><polygon points="363.4 160 358.4 150.0 363.4 140 518.0 140 518.0 160" fill="#4C72B7"/><rect x="405.2" y="140" width="1.2" height="20" fill="lime"/><rect x="393.2" y="140" width="1.2" height="20" fill="red"/><rect x="413.59999999999997" y="140" width="1.2" height="20" fill="red"/><rect x="434.0" y="140" width="1.2" height="20" fill="red"/><rect x="515.5999999999999" y="140" width="1.2" height="20" fill="red"/><rect x="401.59999999999997" y="140" width="1.2" height="20" fill="black"/><rect x="434.0" y="140" width="1.2" height="20" fill="black"/><text class="exonnr" x="438.2" y="150.0">15</text><polygon points="523.0 160 523.0 140 648.8 140 653.8 150.0 648.8 160" fill="#4C72B7"/><rect x="615.4" y="140" width="1.2" height="20" fill="lime"/><rect x="640.6" y="140" width="1.2" height="20" fill="lime"/><rect x="571.0" y="140" width="1.2" height="20" fill="red"/><rect x="548.2" y="140" width="1.2" height="20" fill="red"/><rect x="581.8" y="140" width="1.2" height="20" fill="red"/><rect x="591.4" y="140" width="1.2" height="20" fill="red"/><rect x="535.0" y="140" width="1.2" height="20" fill="red"/><rect x="559.0" y="140" width="1.2" height="20" fill="red"/><rect x="643.0" y="140" width="1.2" height="20" fill="black"/><text class="exonnr" x="588.4" y="150.0">16</text><polygon points="20.0 200 25.0 190.0 20.0 180 162.79999999999998 180 162.79999999999998 200" fill="#4C72B7"/><rect x="93.2" y="180" width="1.2" height="20" fill="lime"/><rect x="60.8" y="180" width="1.2" height="20" fill="lime"/><rect x="100.39999999999999" y="180" width="1.2" height="20" fill="lime"/><rect x="66.8" y="180" width="1.2" height="20" fill="red"/><rect x="86.0" y="180" width="1.2" height="20" fill="red"/><rect x="66.8" y="180" width="1.2" height="20" fill="black"/><rect x="81.19999999999999" y="180" width="1.2" height="20" fill="black"/><rect x="119.6" y="180" width="1.2" height="20" fill="black"/><rect x="153.2" y="180" width="1.2" height="20" fill="black"/><rect x="156.79999999999998" y="180" width="1.2" height="20" fill="black"/><rect x="99.2" y="180" width="1.2" height="20" fill="black"/><text class="exonnr" x="91.39999999999999" y="190.0">17</text><polygon points="167.79999999999998 200 167.79999999999998 180 423.19999999999993 180 428.19999999999993 190.0 423.19999999999993 200" fill="#4C72B7"/><rect x="173.79999999999998" y="180" width="1.2" height="20" fill="lime"/><rect x="174.99999999999997" y="180" width="1.2" height="20" fill="lime"/><rect x="267.4" y="180" width="1.2" height="20" fill="lime"/><rect x="379.0" y="180" width="1.2" height="20" fill="lime"/><rect x="343.0" y="180" width="1.2" height="20" fill="red"/><rect x="221.79999999999998" y="180" width="1.2" height="20" fill="red"/><rect x="286.59999999999997" y="180" width="1.2" height="20" fill="red"/><rect x="222.99999999999997" y="180" width="1.2" height="20" fill="black"/><rect x="297.4" y="180" width="1.2" height="20" fill="black"/><rect x="310.59999999999997" y="180" width="1.2" height="20" fill="black"/><rect x="376.59999999999997" y="180" width="1.2" height="20" fill="black"/><rect x="379.0" y="180" width="1.2" height="20" fill="black"/><rect x="383.79999999999995" y="180" width="1.2" height="20" fill="black"/><text class="exonnr" x="298.0" y="190.0">18</text><polygon points="428.19999999999993 200 433.19999999999993 190.0 428.19999999999993 180 650.1999999999999 180 650.1999999999999 200" fill="#4C72B7"/><rect x="580.5999999999999" y="180" width="1.2" height="20" fill="lime"/><rect x="471.3999999999999" y="180" width="1.2" height="20" fill="red"/><rect x="570.9999999999999" y="180" width="1.2" height="20" fill="red"/><rect x="616.5999999999999" y="180" width="1.2" height="20" fill="black"/><rect x="628.5999999999999" y="180" width="1.2" height="20" fill="black"/><text class="exonnr" x="539.1999999999999" y="190.0">19</text><rect x="20" y="220" width="20" height="20" fill="lime"/><text class="legend" x="50.0" y="230.0">(Likely) Bening</text><rect x="240.0" y="220" width="20" height="20" fill="red"/><text class="legend" x="270.0" y="230.0">(Likely) Pathogenic</text><rect x="500.0" y="220" width="20" height="20" fill="black"/><text class="legend" x="530.0" y="230.0">Other</text><style >
.legend { font: 16.0px sans-serif; fill: black; dominant-baseline: central; }
</style><style >
.exonnr { text-anchor: middle; dominant-baseline: central; font: 10.0px sans-serif; fill: white;}
</style></svg>
