<svg xmlns="http://www.w3.org/2000/svg" width="720.0" height="160"><polygon points="20.0 40 20.0 20 45.0 20 50.0 30.0 45.0 40" fill="#4C72B7"/><text class="exonnr" x="35.0" y="30.0">1</text><polygon points="50.0 40 55.0 30.0 50.0 20 80.0 20 80.0 40" fill="#4C72B7"/><text class="exonnr" x="65.0" y="30.0">2</text><polygon points="85.0 40 85.0 20 115.0 20 115.0 40" fill="#4C72B7"/><text class="exonnr" x="100.0" y="30.0">3</text><polygon points="120.0 40 120.0 20 150.0 20 150.0 40" fill="#4C72B7"/><text class="exonnr" x="135.0" y="30.0">4</text><polygon points="155.0 40 155.0 20 185.0 20 185.0 40" fill="#4C72B7"/><text class="exonnr" x="170.0" y="30.0">5</text><polygon points="190.0 40 190.0 20 215.0 20 220.0 20 215.0 30.0 220.0 40 215.0 40" fill="#4C72B7"/><text class="exonnr" x="205.0" y="30.0">6</text><polygon points="225.0 40 220.0 30.0 225.0 20 245.0 20 250.0 30.0 245.0 40" fill="#4C72B7"/><text class="exonnr" x="235.0" y="30.0">7</text><polygon points="250.0 40 255.0 30.0 250.0 20 280.0 20 280.0 40" fill="#4C72B7"/><text class="exonnr" x="265.0" y="30.0">8</text><polygon points="285.0 40 285.0 20 315.0 20 315.0 40" fill="#4C72B7"/><text class="exonnr" x="300.0" y="30.0">9</text><polygon points="320.0 40 320.0 20 350.0 20 350.0 40" fill="#4C72B7"/><text class="exonnr" x="335.0" y="30.0">10</text><polygon points="355.0 40 355.0 20 380.0 20 385.0 20 380.0 30.0 385.0 40 380.0 40" fill="#4C72B7"/><text class="exonnr" x="370.0" y="30.0">11</text><polygon points="390.0 40 385.0 30.0 390.0 20 415.0 20 415.0 40" fill="#4C72B7"/><text class="exonnr" x="400.0" y="30.0">12</text><polygon points="420.0 40 420.0 20 450.0 20 450.0 40" fill="#4C72B7"/><text class="exonnr" x="435.0" y="30.0">13</text><polygon points="455.0 40 455.0 20 485.0 20 485.0 40" fill="#4C72B7"/><text class="exonnr" x="470.0" y="30.0">14</text><polygon points="490.0 40 490.0 20 520.0 20 520.0 40" fill="#4C72B7"/><text class="exonnr" x="505.0" y="30.0">15</text><polygon points="525.0 40 525.0 20 555.0 20 555.0 40" fill="#4C72B7"/><text class="exonnr" x="540.0" y="30.0">16</text><polygon points="560.0 40 560.0 20 585.0 20 590.0 20 585.0 30.0 590.0 40 585.0 40" fill="#4C72B7"/><text class="exonnr" x="575.0" y="30.0">17</text><polygon points="595.0 40 590.0 30.0 595.0 20 620.0 20 620.0 40" fill="#4C72B7"/><text class="exonnr" x="605.0" y="30.0">18</text><polygon points="625.0 40 625.0 20 650.0 20 655.0 30.0 650.0 40" fill="#4C72B7"/><text class="exonnr" x="640.0" y="30.0">19</text><polygon points="655.0 40 660.0 30.0 655.0 20 685.0 20 685.0 40" fill="#4C72B7"/><text class="exonnr" x="670.0" y="30.0">20</text><polygon points="20.0 80 20.0 60 45.0 60 50.0 70.0 45.0 80" fill="#4C72B7"/><text class="exonnr" x="35.0" y="70.0">21</text><polygon points="50.0 80 55.0 70.0 50.0 60 80.0 60 80.0 80" fill="#4C72B7"/><text class="exonnr" x="65.0" y="70.0">22</text><polygon points="85.0 80 85.0 60 115.0 60 115.0 80" fill="#4C72B7"/><text class="exonnr" x="100.0" y="70.0">23</text><polygon points="120.0 80 120.0 60 150.0 60 150.0 80" fill="#4C72B7"/><text class="exonnr" x="135.0" y="70.0">24</text><polygon points="155.0 80 155.0 60 185.0 60 185.0 80" fill="#4C72B7"/><text class="exonnr" x="170.0" y="70.0">25</text><polygon points="190.0 80 190.0 60 220.0 60 220.0 80" fill="#4C72B7"/><text class="exonnr" x="205.0" y="70.0">26</text><polygon points="225.0 80 225.0 60 255.0 60 255.0 80" fill="#4C72B7"/><text class="exonnr" x="240.0" y="70.0">27</text><polygon points="260.0 80 260.0 60 290.0 60 290.0 80" fill="#4C72B7"/><text class="exonnr" x="275.0" y="70.0">28</text><polygon points="295.0 80 295.0 60 325.0 60 325.0 80" fill="#4C72B7"/><text class="exonnr" x="310.0" y="70.0">29</text><polygon points="330.0 80 330.0 60 360.0 60 360.0 80" fill="#4C72B7"/><text class="exonnr" x="345.0" y="70.0">30</text><polygon points="365.0 80 365.0 60 395.0 60 395.0 80" fill="#4C72B7"/><text class="exonnr" x="380.0" y="70.0">31</text><polygon points="400.0 80 400.0 60 430.0 60 430.0 80" fill="#4C72B7"/><text class="exonnr" x="415.0" y="70.0">32</text><polygon points="435.0 80 435.0 60 465.0 60 465.0 80" fill="#4C72B7"/><text class="exonnr" x="450.0" y="70.0">33</text><polygon points="470.0 80 470.0 60 500.0 60 500.0 80" fill="#4C72B7"/><text class="exonnr" x="485.0" y="70.0">34</text><polygon points="505.0 80 505.0 60 535.0 60 535.0 80" fill="#4C72B7"/><text class="exonnr" x="520.0" y="70.0">35</text><polygon points="540.0 80 540.0 60 570.0 60 570.0 80" fill="#4C72B7"/><text class="exonnr" x="555.0" y="70.0">36</text><polygon points="575.0 80 575.0 60 605.0 60 605.0 80" fill="#4C72B7"/><text class="exonnr" x="590.0" y="70.0">37</text><polygon points="610.0 80 610.0 60 640.0 60 640.0 80" fill="#4C72B7"/><text class="exonnr" x="625.0" y="70.0">38</text><polygon points="645.0 80 645.0 60 675.0 60 675.0 80" fill="#4C72B7"/><text class="exonnr" x="660.0" y="70.0">39</text><polygon points="20.0 120 20.0 100 50.0 100 50.0 120" fill="#4C72B7"/><text class="exonnr" x="35.0" y="110.0">40</text><polygon points="55.0 120 55.0 100 85.0 100 85.0 120" fill="#4C72B7"/><text class="exonnr" x="70.0" y="110.0">41</text><polygon points="90.0 120 90.0 100 120.0 100 120.0 120" fill="#4C72B7"/><text class="exonnr" x="105.0" y="110.0">42</text><polygon points="125.0 120 125.0 100 150.0 100 155.0 100 150.0 110.0 155.0 120 150.0 120" fill="#4C72B7"/><text class="exonnr" x="140.0" y="110.0">43</text><polygon points="160.0 120 155.0 110.0 160.0 100 185.0 100 185.0 120" fill="#4C72B7"/><text class="exonnr" x="170.0" y="110.0">44</text><polygon points="190.0 120 190.0 100 215.0 100 220.0 100 215.0 110.0 220.0 120 215.0 120" fill="#4C72B7"/><text class="exonnr" x="205.0" y="110.0">45</text><polygon points="225.0 120 220.0 110.0 225.0 100 250.0 100 250.0 120" fill="#4C72B7"/><text class="exonnr" x="235.0" y="110.0">46</text><polygon points="255.0 120 255.0 100 285.0 100 285.0 120" fill="#4C72B7"/><text class="exonnr" x="270.0" y="110.0">47</text><polygon points="290.0 120 290.0 100 320.0 100 320.0 120" fill="#4C72B7"/><text class="exonnr" x="305.0" y="110.0">48</text><polygon points="325.0 120 325.0 100 355.0 100 355.0 120" fill="#4C72B7"/><text class="exonnr" x="340.0" y="110.0">49</text><polygon points="360.0 120 360.0 100 385.0 100 390.0 110.0 385.0 120" fill="#4C72B7"/><text class="exonnr" x="375.0" y="110.0">50</text><polygon points="390.0 120 395.0 110.0 390.0 100 420.0 100 420.0 120" fill="#4C72B7"/><text class="exonnr" x="405.0" y="110.0">51</text><polygon points="425.0 120 425.0 100 450.0 100 455.0 110.0 450.0 120" fill="#4C72B7"/><text class="exonnr" x="440.0" y="110.0">52</text><polygon points="455.0 120 460.0 110.0 455.0 100 485.0 100 485.0 120" fill="#4C72B7"/><text class="exonnr" x="470.0" y="110.0">53</text><polygon points="490.0 120 490.0 100 515.0 100 520.0 100 515.0 110.0 520.0 120 515.0 120" fill="#4C72B7"/><text class="exonnr" x="505.0" y="110.0">54</text><polygon points="525.0 120 520.0 110.0 525.0 100 550.0 100 550.0 120" fill="#4C72B7"/><text class="exonnr" x="535.0" y="110.0">55</text><polygon points="555.0 120 555.0 100 580.0 100 585.0 100 580.0 110.0 585.0 120 580.0 120" fill="#4C72B7"/><text class="exonnr" x="570.0" y="110.0">56</text><polygon points="590.0 120 585.0 110.0 590.0 100 615.0 100 615.0 120" fill="#4C72B7"/><text class="exonnr" x="600.0" y="110.0">57</text><polygon points="620.0 120 620.0 100 645.0 100 650.0 110.0 645.0 120" fill="#4C72B7"/><text class="exonnr" x="635.0" y="110.0">58</text><polygon points="650.0 120 655.0 110.0 650.0 100 680.0 100 680.0 120" fill="#4C72B7"/><text class="exonnr" x="665.0" y="110.0">59</text><polygon points="20.0 160 20.0 140 50.0 140 50.0 160" fill="#4C72B7"/><text class="exonnr" x="35.0" y="150.0">60</text><polygon points="55.0 160 55.0 140 80.0 140 85.0 150.0 80.0 160" fill="#4C72B7"/><text class="exonnr" x="70.0" y="150.0">61</text><polygon points="85.0 160 90.0 150.0 85.0 140 110.0 140 115.0 140 110.0 150.0 115.0 160 110.0 160" fill="#4C72B7"/><text class="exonnr" x="100.0" y="150.0">62</text><polygon points="120.0 160 115.0 150.0 120.0 140 140.0 140 145.0 150.0 140.0 160" fill="#4C72B7"/><text class="exonnr" x="130.0" y="150.0">63</text><polygon points="145.0 160 150.0 150.0 145.0 140 170.0 140 175.0 150.0 170.0 160" fill="#4C72B7"/><text class="exonnr" x="160.0" y="150.0">64</text><polygon points="175.0 160 180.0 150.0 175.0 140 200.0 140 205.0 140 200.0 150.0 205.0 160 200.0 160" fill="#4C72B7"/><text class="exonnr" x="190.0" y="150.0">65</text><polygon points="210.0 160 205.0 150.0 210.0 140 230.0 140 235.0 150.0 230.0 160" fill="#4C72B7"/><text class="exonnr" x="220.0" y="150.0">66</text><polygon points="235.0 160 240.0 150.0 235.0 140 265.0 140 265.0 160" fill="#4C72B7"/><text class="exonnr" x="250.0" y="150.0">67</text><polygon points="270.0 160 270.0 140 295.0 140 300.0 140 295.0 150.0 300.0 160 295.0 160" fill="#4C72B7"/><text class="exonnr" x="285.0" y="150.0">68</text><polygon points="305.0 160 300.0 150.0 305.0 140 330.0 140 330.0 160" fill="#4C72B7"/><text class="exonnr" x="315.0" y="150.0">69</text><polygon points="335.0 160 335.0 140 360.0 140 365.0 140 360.0 150.0 365.0 160 360.0 160" fill="#4C72B7"/><text class="exonnr" x="350.0" y="150.0">70</text><polygon points="370.0 160 365.0 150.0 370.0 140 390.0 140 395.0 140 390.0 150.0 395.0 160 390.0 160" fill="#4C72B7"/><text class="exonnr" x="380.0" y="150.0">71</text><polygon points="400.0 160 395.0 150.0 400.0 140 420.0 140 425.0 140 420.0 150.0 425.0 160 420.0 160" fill="#4C72B7"/><text class="exonnr" x="410.0" y="150.0">72</text><polygon points="430.0 160 425.0 150.0 430.0 140 450.0 140 455.0 140 450.0 150.0 455.0 160 450.0 160" fill="#4C72B7"/><text class="exonnr" x="440.0" y="150.0">73</text><polygon points="460.0 160 455.0 150.0 460.0 140 480.0 140 485.0 140 480.0 150.0 485.0 160 480.0 160" fill="#4C72B7"/><text class="exonnr" x="470.0" y="150.0">74</text><polygon points="490.0 160 485.0 150.0 490.0 140 515.0 140 515.0 160" fill="#4C72B7"/><text class="exonnr" x="500.0" y="150.0">75</text><polygon points="520.0 160 520.0 140 545.0 140 550.0 150.0 545.0 160" fill="#4C72B7"/><text class="exonnr" x="535.0" y="150.0">76</text><polygon points="550.0 160 555.0 150.0 550.0 140 575.0 140 580.0 150.0 575.0 160" fill="#4C72B7"/><text class="exonnr" x="565.0" y="150.0">77</text><polygon points="580.0 160 585.0 150.0 580.0 140 610.0 140 610.0 160" fill="#4C72B7"/><text class="exonnr" x="595.0" y="150.0">78</text><polygon points="615.0 160 615.0 140 645.0 140 645.0 160" fill="#4C72B7"/><text class="exonnr" x="630.0" y="150.0">79</text><style >
.legend { font: 16.0px sans-serif; fill: black; dominant-baseline: central; }
</style><style >
.exonnr { text-anchor: middle; dominant-baseline: central; font: 10.0px sans-serif; fill: white;}
</style></svg>
