<svg xmlns="http://www.w3.org/2000/svg" width="1226.0" height="40"><polygon points="20.0 40 20.0 20 212.0 20 217.0 20 212.0 30.0 217.0 40 212.0 40" fill="#4C72B7"/><text class="exonnr" x="118.5" y="30.0">1</text><polygon points="227.0 40 222.0 30.0 227.0 20 322.0 20 322.0 40" fill="#4C72B7"/><text class="exonnr" x="272.0" y="30.0">2</text><polygon points="332.0 40 332.0 20 455.0 20 455.0 40" fill="#4C72B7"/><text class="exonnr" x="393.5" y="30.0">3</text><rect x="465.0" y="25.0" width="124.0" height="10.0" fill="darkred"/><text class="exonnr" x="527.0" y="30.0">poison exon</text><polygon points="599.0 40 599.0 20 656.0 20 656.0 40" fill="#4C72B7"/><text class="exonnr" x="627.5" y="30.0">4</text><polygon points="666.0 40 666.0 20 764.0 20 769.0 30.0 764.0 40" fill="#4C72B7"/><text class="exonnr" x="717.5" y="30.0">5</text><polygon points="774.0 40 779.0 30.0 774.0 20 908.0 20 908.0 40" fill="#4C72B7"/><text class="exonnr" x="841.0" y="30.0">6</text><polygon points="918.0 40 918.0 20 1020.0 20 1020.0 40" fill="#4C72B7"/><text class="exonnr" x="969.0" y="30.0">7</text><polygon points="1030.0 40 1030.0 20 1087.0 20 1087.0 40" fill="#4C72B7"/><text class="exonnr" x="1058.5" y="30.0">8</text><polygon points="1097.0 40 1097.0 20 1226.0 20 1226.0 40" fill="#4C72B7"/><text class="exonnr" x="1161.5" y="30.0">9</text><style >
.legend { font: 16.0px sans-serif; fill: black; dominant-baseline: central; }
</style><style >
.exonnr { text-anchor: middle; dominant-baseline: central; font: 10.0px sans-serif; fill: white;}
</style></svg>
