<svg xmlns="http://www.w3.org/2000/svg" width="1181.0" height="40"><polygon points="20.0 40 20.0 20 212.0 20 217.0 20 212.0 30.0 217.0 40 212.0 40" fill="#4C72B7"/><text class="exonnr" x="118.5" y="30.0">1</text><polygon points="222.0 40 217.0 30.0 222.0 20 317.0 20 317.0 40" fill="#4C72B7"/><text class="exonnr" x="267.0" y="30.0">2</text><polygon points="322.0 40 322.0 20 445.0 20 445.0 40" fill="#4C72B7"/><text class="exonnr" x="383.5" y="30.0">3</text><rect x="450.0" y="25.0" width="124.0" height="10.0" fill="darkred"/><text class="exonnr" x="512.0" y="30.0">cryptic exon</text><polygon points="579.0 40 579.0 20 636.0 20 636.0 40" fill="#4C72B7"/><text class="exonnr" x="607.5" y="30.0">4</text><polygon points="641.0 40 641.0 20 739.0 20 744.0 30.0 739.0 40" fill="#4C72B7"/><text class="exonnr" x="692.5" y="30.0">5</text><polygon points="744.0 40 749.0 30.0 744.0 20 878.0 20 878.0 40" fill="#4C72B7"/><text class="exonnr" x="811.0" y="30.0">6</text><polygon points="883.0 40 883.0 20 985.0 20 985.0 40" fill="#4C72B7"/><text class="exonnr" x="934.0" y="30.0">7</text><polygon points="990.0 40 990.0 20 1047.0 20 1047.0 40" fill="#4C72B7"/><text class="exonnr" x="1018.5" y="30.0">8</text><polygon points="1052.0 40 1052.0 20 1181.0 20 1181.0 40" fill="#4C72B7"/><text class="exonnr" x="1116.5" y="30.0">9</text><style >
.legend { font: 16.0px sans-serif; fill: black; dominant-baseline: central; }
</style><style >
.exonnr { text-anchor: middle; dominant-baseline: central; font: 10.0px sans-serif; fill: white;}
</style></svg>
