<svg xmlns="http://www.w3.org/2000/svg" width="3673.0" height="581.25"><rect x="75" y="93.75" width="334.0" height="37.5" fill="#4C72B7"/><polygon points="408.0 150 408.0 75 468.0 75 468.0 150" fill="#4C72B7"/><polygon points="486.75 150 486.75 75 630.75 75 630.75 150" fill="#4C72B7"/><polygon points="649.5 150 649.5 75 733.5 75 733.5 150" fill="#4C72B7"/><polygon points="752.25 150 752.25 75 924.5 75 943.25 75 924.5 112.5 943.25 150 924.5 150" fill="#4C72B7"/><polygon points="962.0 150 943.25 112.5 962.0 75 1031.5 75 1050.25 112.5 1031.5 150" fill="#4C72B7"/><polygon points="1050.25 150 1069.0 112.5 1050.25 75 1118.25 75 1118.25 150" fill="#4C72B7"/><polygon points="1137.0 150 1137.0 75 1194.25 75 1213.0 112.5 1194.25 150" fill="#4C72B7"/><polygon points="1213.0 150 1231.75 112.5 1213.0 75 1371.0 75 1371.0 150" fill="#4C72B7"/><polygon points="1389.75 150 1389.75 75 1563.75 75 1563.75 150" fill="#4C72B7"/><polygon points="1582.5 150 1582.5 75 1705.5 75 1705.5 150" fill="#4C72B7"/><polygon points="1724.25 150 1724.25 75 1799.25 75 1799.25 150" fill="#4C72B7"/><polygon points="1818.0 150 1818.0 75 1950.0 75 1950.0 150" fill="#4C72B7"/><polygon points="1968.75 150 1968.75 75 2103.75 75 2103.75 150" fill="#4C72B7"/><polygon points="2122.5 150 2122.5 75 2236.5 75 2236.5 150" fill="#4C72B7"/><polygon points="2255.25 150 2255.25 75 2316.5 75 2335.25 75 2316.5 112.5 2335.25 150 2316.5 150" fill="#4C72B7"/><polygon points="2354.0 150 2335.25 112.5 2354.0 75 2459.25 75 2459.25 150" fill="#4C72B7"/><polygon points="2478.0 150 2478.0 75 2634.0 75 2634.0 150" fill="#4C72B7"/><polygon points="2652.75 150 2652.75 75 2884.0 75 2902.75 112.5 2884.0 150" fill="#4C72B7"/><polygon points="2902.75 150 2921.5 112.5 2902.75 75 2976.75 75 2976.75 150" fill="#4C72B7"/><polygon points="2995.5 150 2995.5 75 3079.5 75 3079.5 150" fill="#4C72B7"/><polygon points="3098.25 150 3098.25 75 3539.25 75 3539.25 150" fill="#4C72B7"/><polygon points="75.0 300 75.0 225 196.25 225 215.0 225 196.25 262.5 215.0 300 196.25 300" fill="#4C72B7"/><polygon points="233.75 300 215.0 262.5 233.75 225 319.25 225 338.0 225 319.25 262.5 338.0 300 319.25 300" fill="#4C72B7"/><polygon points="356.75 300 338.0 262.5 356.75 225 403.25 225 422.0 225 403.25 262.5 422.0 300 403.25 300" fill="#4C72B7"/><polygon points="440.75 300 422.0 262.5 440.75 225 520.25 225 539.0 225 520.25 262.5 539.0 300 520.25 300" fill="#4C72B7"/><polygon points="557.75 300 539.0 262.5 557.75 225 702.25 225 721.0 262.5 702.25 300" fill="#4C72B7"/><polygon points="721.0 300 739.75 262.5 721.0 225 933.0 225 933.0 300" fill="#4C72B7"/><polygon points="951.75 300 951.75 225 1113.75 225 1113.75 300" fill="#4C72B7"/><polygon points="1132.5 300 1132.5 225 1217.75 225 1236.5 225 1217.75 262.5 1236.5 300 1217.75 300" fill="#4C72B7"/><polygon points="1255.25 300 1236.5 262.5 1255.25 225 1372.5 225 1372.5 300" fill="#4C72B7"/><polygon points="1391.25 300 1391.25 225 1454.25 225 1454.25 300" fill="#4C72B7"/><polygon points="1473.0 300 1473.0 225 1632.0 225 1632.0 300" fill="#4C72B7"/><polygon points="1650.75 300 1650.75 225 1730.0 225 1748.75 225 1730.0 262.5 1748.75 300 1730.0 300" fill="#4C72B7"/><polygon points="1767.5 300 1748.75 262.5 1767.5 225 1877.0 225 1895.75 225 1877.0 262.5 1895.75 300 1877.0 300" fill="#4C72B7"/><polygon points="1914.5 300 1895.75 262.5 1914.5 225 2024.0 225 2042.75 225 2024.0 262.5 2042.75 300 2024.0 300" fill="#4C72B7"/><polygon points="2061.5 300 2042.75 262.5 2061.5 225 2135.0 225 2153.75 225 2135.0 262.5 2153.75 300 2135.0 300" fill="#4C72B7"/><polygon points="2172.5 300 2153.75 262.5 2172.5 225 2586.75 225 2586.75 300" fill="#4C72B7"/><polygon points="2605.5 300 2605.5 225 2927.75 225 2946.5 225 2927.75 262.5 2946.5 300 2927.75 300" fill="#4C72B7"/><polygon points="2965.25 300 2946.5 262.5 2965.25 225 3130.75 225 3149.5 262.5 3130.75 300" fill="#4C72B7"/><polygon points="75.0 450 93.75 412.5 75.0 375 269.0 375 269.0 450" fill="#4C72B7"/><polygon points="287.75 450 287.75 375 428.75 375 428.75 450" fill="#4C72B7"/><polygon points="447.5 450 447.5 375 708.75 375 727.5 412.5 708.75 450" fill="#4C72B7"/><polygon points="727.5 450 746.25 412.5 727.5 375 942.5 375 942.5 450" fill="#4C72B7"/><polygon points="961.25 450 961.25 375 1004.5 375 1023.25 375 1004.5 412.5 1023.25 450 1004.5 450" fill="#4C72B7"/><polygon points="1042.0 450 1023.25 412.5 1042.0 375 1138.25 375 1138.25 450" fill="#4C72B7"/><polygon points="1157.0 450 1157.0 375 1259.0 375 1259.0 450" fill="#4C72B7"/><polygon points="1277.75 450 1277.75 375 1418.75 375 1418.75 450" fill="#4C72B7"/><polygon points="1437.5 450 1437.5 375 1545.75 375 1564.5 412.5 1545.75 450" fill="#4C72B7"/><polygon points="1564.5 450 1583.25 412.5 1564.5 375 1677.75 375 1696.5 412.5 1677.75 450" fill="#4C72B7"/><polygon points="1696.5 450 1715.25 412.5 1696.5 375 1813.75 375 1832.5 375 1813.75 412.5 1832.5 450 1813.75 450" fill="#4C72B7"/><polygon points="1851.25 450 1832.5 412.5 1851.25 375 1971.75 375 1990.5 412.5 1971.75 450" fill="#4C72B7"/><polygon points="1990.5 450 2009.25 412.5 1990.5 375 2094.75 375 2113.5 412.5 2094.75 450" fill="#4C72B7"/><polygon points="2113.5 450 2132.25 412.5 2113.5 375 2244.5 375 2244.5 450" fill="#4C72B7"/><polygon points="2263.25 450 2263.25 375 2345.5 375 2364.25 375 2345.5 412.5 2364.25 450 2345.5 450" fill="#4C72B7"/><polygon points="2383.0 450 2364.25 412.5 2383.0 375 2488.5 375 2507.25 412.5 2488.5 450" fill="#4C72B7"/><polygon points="2507.25 450 2526.0 412.5 2507.25 375 2554.25 375 2554.25 450" fill="#4C72B7"/><polygon points="2573.0 450 2573.0 375 2771.25 375 2790.0 412.5 2771.25 450" fill="#4C72B7"/><rect x="2932.0" y="393.75" width="741.0" height="37.5" fill="#4C72B7"/><polygon points="2790.0 450 2808.75 412.5 2790.0 375 2933.0 375 2933.0 450" fill="#4C72B7"/><rect x="75" y="543.75" width="2780.0" height="37.5" fill="#4C72B7"/><style >
.legend { font: 60.0px sans-serif; fill: black; dominant-baseline: central; }
</style><style >
.exonnr { text-anchor: middle; dominant-baseline: central; font: 37.5px sans-serif; fill: white;}
</style></svg>
