<svg xmlns="http://www.w3.org/2000/svg" width="1124.2" height="40"><polygon points="20.0 40 20.0 20 20.2 20 25.2 30.0 20.2 40" fill="#4C72B7"/><text class="exonnr" x="22.6" y="30.0">1</text><polygon points="25.2 40 30.2 30.0 25.2 20 263.3 20 268.3 20 263.3 30.0 268.3 40 263.3 40" fill="#4C72B7"/><text class="exonnr" x="146.75" y="30.0">2</text><polygon points="273.3 40 268.3 30.0 273.3 20 472.4 20 472.4 40" fill="#4C72B7"/><text class="exonnr" x="370.35" y="30.0">3A</text><polygon points="477.4 40 477.4 20 613.9 20 613.9 40" fill="#4C72B7"/><text class="exonnr" x="545.65" y="30.0">3B</text><polygon points="618.9 40 618.9 20 833.6 20 838.6 30.0 833.6 40" fill="#4C72B7"/><text class="exonnr" x="728.75" y="30.0">4</text><polygon points="838.6 40 843.6 30.0 838.6 20 934.8000000000001 20 934.8000000000001 40" fill="#4C72B7"/><text class="exonnr" x="886.7" y="30.0">5</text><polygon points="939.8000000000001 40 939.8000000000001 20 1025.6000000000001 20 1025.6000000000001 40" fill="#4C72B7"/><text class="exonnr" x="982.7" y="30.0">6</text><polygon points="1030.6000000000001 40 1030.6000000000001 20 1124.2 20 1124.2 40" fill="#4C72B7"/><text class="exonnr" x="1077.4" y="30.0">7</text><style >
.legend { font: 16.0px sans-serif; fill: black; dominant-baseline: central; }
</style><style >
.exonnr { text-anchor: middle; dominant-baseline: central; font: 10.0px sans-serif; fill: white;}
</style></svg>
