<svg xmlns="http://www.w3.org/2000/svg" width="515.0" height="80"><polygon points="20.0 40 20.0 20 67.0 20 72.0 30.0 67.0 40" fill="#4C72B7"/><text class="exonnr" x="46.0" y="30.0">1</text><polygon points="77.0 40 82.0 30.0 77.0 20 189.0 20 194.0 30.0 189.0 40" fill="#4C72B7"/><text class="exonnr" x="135.5" y="30.0">2</text><polygon points="199.0 40 204.0 30.0 199.0 20 339.0 20 344.0 20 339.0 30.0 344.0 40 339.0 40" fill="#4C72B7"/><rect x="303.0" y="20" width="1.0" height="20" fill="#BA1C30"/><rect x="329.0" y="20" width="1.0" height="20" fill="#DB6917"/><text class="exonnr" x="271.5" y="30.0">3</text><polygon points="354.0 40 349.0 30.0 354.0 20 515.0 20 515.0 40" fill="#4C72B7"/><text class="exonnr" x="432.0" y="30.0">4</text><rect x="20" y="60" width="20" height="20" fill="#BA1C30"/><text class="legend" x="50.0" y="70.0">r.274G>T</text><rect x="170.0" y="60" width="20" height="20" fill="#DB6917"/><text class="legend" x="200.0" y="70.0">r.300del</text><style >
.legend { font: 16.0px sans-serif; fill: black; dominant-baseline: central; }
</style><style >
.exonnr { text-anchor: middle; dominant-baseline: central; font: 10.0px sans-serif; fill: white;}
</style></svg>
