<svg xmlns="http://www.w3.org/2000/svg" width="500.0" height="80"><polygon points="20.0 40 20.0 20 67.0 20 72.0 30.0 67.0 40" fill="#4C72B7"/><text class="exonnr" x="46.0" y="30.0">1</text><polygon points="72.0 40 77.0 30.0 72.0 20 184.0 20 189.0 30.0 184.0 40" fill="#4C72B7"/><text class="exonnr" x="130.5" y="30.0">2</text><polygon points="189.0 40 194.0 30.0 189.0 20 329.0 20 334.0 20 329.0 30.0 334.0 40 329.0 40" fill="#4C72B7"/><rect x="293.0" y="10.0" width="1.0" height="30.0" fill="#BA1C30"/><circle stroke="#BA1C30" cx="293.5" cy="10.0" r="5.0" fill="#BA1C30"/><rect x="319.0" y="10.0" width="1.0" height="30.0" fill="#DB6917"/><circle stroke="#DB6917" cx="319.5" cy="10.0" r="5.0" fill="#DB6917"/><text class="exonnr" x="261.5" y="30.0">3</text><polygon points="339.0 40 334.0 30.0 339.0 20 500.0 20 500.0 40" fill="#4C72B7"/><text class="exonnr" x="417.0" y="30.0">4</text><rect x="20" y="60" width="20" height="20" fill="#BA1C30"/><text class="legend" x="50.0" y="70.0">r.274G>T</text><rect x="170.0" y="60" width="20" height="20" fill="#DB6917"/><text class="legend" x="200.0" y="70.0">r.300del</text><style >
.legend { font: 16.0px sans-serif; fill: black; dominant-baseline: central; }
</style><style >
.exonnr { text-anchor: middle; dominant-baseline: central; font: 10.0px sans-serif; fill: white;}
</style></svg>
