<svg xmlns="http://www.w3.org/2000/svg" width="7808" height="450"><polygon stroke="red" stroke-width="0" points="173 37.5 173 112.5 10 112.5 10 37.5 173 37.5" fill="#4C72B7"/><polygon stroke="red" stroke-width="0" points="338 37.5 338 112.5 223 112.5 223 37.5 338 37.5" fill="#4C72B7"/><polygon stroke="red" stroke-width="0" points="514 37.5 514 112.5 388 112.5 388 37.5 514 37.5" fill="#4C72B7"/><polygon stroke="red" stroke-width="0" points="692 37.5 692 112.5 564 112.5 564 37.5 692 37.5" fill="#4C72B7"/><polygon stroke="red" stroke-width="0" points="804 37.5 804 112.5 742 112.5 742 37.5 804 37.5" fill="#4C72B7"/><polygon stroke="red" stroke-width="0" points="992 37.5 992 112.5 854 112.5 854 37.5 992 37.5" fill="#4C72B7"/><polygon stroke="red" stroke-width="0" points="1202 37.5 1202 112.5 1042 112.5 1042 37.5 1202 37.5" fill="#4C72B7"/><polygon stroke="red" stroke-width="0" points="1202 0 3119 0 3119 150 1202 150 1202 0" fill="#4C72B7"/><polygon stroke="red" stroke-width="0" points="7758 337.5 7758 412.5 541 412.5 541 337.5 7758 337.5" fill="#4C72B7"/><polygon stroke="red" stroke-width="0" points="10 300 541 300 541 450 10 450 10 300" fill="#4C72B7"/></svg>
