<svg xmlns="http://www.w3.org/2000/svg" width="1035" height="520"><polygon points="20 40 20 20 46.0 20 51 30.0 46.0 40" fill="purple"/><text class="exonnr" x="35.5" y="30.0">1</text><polygon points="56 40 61.0 30.0 56 20 118 20 118 40" fill="purple"/><text class="exonnr" x="87.0" y="30.0">2</text><polygon points="123 40 123 20 216 20 216 40" fill="purple"/><text class="exonnr" x="169.5" y="30.0">3</text><polygon points="221 40 221 20 299 20 299 40" fill="purple"/><text class="exonnr" x="260.0" y="30.0">4</text><polygon points="304 40 304 20 397 20 397 40" fill="purple"/><text class="exonnr" x="350.5" y="30.0">5</text><polygon points="402 40 402 20 570.0 20 575 20 570.0 30.0 575 40 570.0 40" fill="purple"/><text class="exonnr" x="488.5" y="30.0">6</text><polygon points="585.0 40 580 30.0 585.0 20 694.0 20 699 30.0 694.0 40" fill="purple"/><text class="exonnr" x="639.5" y="30.0">7</text><polygon points="704 40 709.0 30.0 704 20 886 20 886 40" fill="purple"/><text class="exonnr" x="795.0" y="30.0">8</text><polygon points="20 80 20 60 149 60 149 80" fill="purple"/><text class="exonnr" x="84.5" y="70.0">9</text><polygon points="154 80 154 60 343 60 343 80" fill="purple"/><text class="exonnr" x="248.5" y="70.0">10</text><polygon points="348 80 348 60 525.0 60 530 60 525.0 70.0 530 80 525.0 80" fill="purple"/><text class="exonnr" x="439.0" y="70.0">11</text><polygon points="540.0 80 535 70.0 540.0 60 686 60 686 80" fill="purple"/><text class="exonnr" x="610.5" y="70.0">12</text><polygon points="691 80 691 60 811 60 811 80" fill="purple"/><text class="exonnr" x="751.0" y="70.0">13</text><polygon points="816 80 816 60 918 60 918 80" fill="purple"/><text class="exonnr" x="867.0" y="70.0">14</text><polygon points="20 120 20 100 128 100 128 120" fill="purple"/><text class="exonnr" x="74.0" y="110.0">15</text><polygon points="133 120 133 100 313 100 313 120" fill="purple"/><text class="exonnr" x="223.0" y="110.0">16</text><polygon points="318 120 318 100 489.0 100 494 100 489.0 110.0 494 120 489.0 120" fill="purple"/><text class="exonnr" x="406.0" y="110.0">17</text><polygon points="504.0 120 499 110.0 504.0 100 623 100 623 120" fill="purple"/><text class="exonnr" x="561.0" y="110.0">18</text><polygon points="628 120 628 100 711.0 100 716 110.0 711.0 120" fill="purple"/><text class="exonnr" x="672.0" y="110.0">19</text><polygon points="721 120 726.0 110.0 721 100 963 100 963 120" fill="purple"/><text class="exonnr" x="842.0" y="110.0">20</text><polygon points="20 160 20 140 196.0 140 201 150.0 196.0 160" fill="purple"/><text class="exonnr" x="110.5" y="150.0">21</text><polygon points="206 160 211.0 150.0 206 140 352 140 352 160" fill="purple"/><text class="exonnr" x="279.0" y="150.0">22</text><polygon points="357 160 357 140 570 140 570 160" fill="purple"/><text class="exonnr" x="463.5" y="150.0">23</text><polygon points="575 160 575 140 689 140 689 160" fill="purple"/><text class="exonnr" x="632.0" y="150.0">24</text><polygon points="694 160 694 140 850 140 850 160" fill="purple"/><text class="exonnr" x="772.0" y="150.0">25</text><polygon points="855 160 855 140 1026 140 1026 160" fill="purple"/><text class="exonnr" x="940.5" y="150.0">26</text><polygon points="20 200 20 180 203 180 203 200" fill="purple"/><text class="exonnr" x="111.5" y="190.0">27</text><polygon points="208 200 208 180 343 180 343 200" fill="purple"/><text class="exonnr" x="275.5" y="190.0">28</text><polygon points="348 200 348 180 498 180 498 200" fill="purple"/><text class="exonnr" x="423.0" y="190.0">29</text><polygon points="503 200 503 180 665 180 665 200" fill="purple"/><text class="exonnr" x="584.0" y="190.0">30</text><polygon points="670 200 670 180 781 180 781 200" fill="purple"/><text class="exonnr" x="725.5" y="190.0">31</text><polygon points="786 200 786 180 960 180 960 200" fill="purple"/><text class="exonnr" x="873.0" y="190.0">32</text><polygon points="20 240 20 220 176 220 176 240" fill="purple"/><text class="exonnr" x="98.0" y="230.0">33</text><polygon points="181 240 181 220 352 220 352 240" fill="purple"/><text class="exonnr" x="266.5" y="230.0">34</text><polygon points="357 240 357 220 537 220 537 240" fill="purple"/><text class="exonnr" x="447.0" y="230.0">35</text><polygon points="542 240 542 220 671 220 671 240" fill="purple"/><text class="exonnr" x="606.5" y="230.0">36</text><polygon points="676 240 676 220 847 220 847 240" fill="purple"/><text class="exonnr" x="761.5" y="230.0">37</text><polygon points="852 240 852 220 975 220 975 240" fill="purple"/><text class="exonnr" x="913.5" y="230.0">38</text><polygon points="20 280 20 260 158 260 158 280" fill="purple"/><text class="exonnr" x="89.0" y="270.0">39</text><polygon points="163 280 163 260 316 260 316 280" fill="purple"/><text class="exonnr" x="239.5" y="270.0">40</text><polygon points="321 280 321 260 504 260 504 280" fill="purple"/><text class="exonnr" x="412.5" y="270.0">41</text><polygon points="509 280 509 260 704 260 704 280" fill="purple"/><text class="exonnr" x="606.5" y="270.0">42</text><polygon points="709 280 709 260 877.0 260 882 260 877.0 270.0 882 280 877.0 280" fill="purple"/><text class="exonnr" x="795.5" y="270.0">43</text><polygon points="892.0 280 887 270.0 892.0 260 1035 260 1035 280" fill="purple"/><text class="exonnr" x="961.0" y="270.0">44</text><polygon points="20 320 20 300 191.0 300 196 300 191.0 310.0 196 320 191.0 320" fill="purple"/><text class="exonnr" x="108.0" y="310.0">45</text><polygon points="206.0 320 201 310.0 206.0 300 349 300 349 320" fill="purple"/><text class="exonnr" x="275.0" y="310.0">46</text><polygon points="354 320 354 300 504 300 504 320" fill="purple"/><text class="exonnr" x="429.0" y="310.0">47</text><polygon points="509 320 509 300 695 300 695 320" fill="purple"/><text class="exonnr" x="602.0" y="310.0">48</text><polygon points="700 320 700 300 802 300 802 320" fill="purple"/><text class="exonnr" x="751.0" y="310.0">49</text><polygon points="807 320 807 300 911.0 300 916 310.0 911.0 320" fill="purple"/><text class="exonnr" x="861.5" y="310.0">50</text><polygon points="20 360 25.0 350.0 20 340 253 340 253 360" fill="purple"/><text class="exonnr" x="136.5" y="350.0">51</text><polygon points="258 360 258 340 371.0 340 376 350.0 371.0 360" fill="purple"/><text class="exonnr" x="317.0" y="350.0">52</text><polygon points="381 360 386.0 350.0 381 340 593 340 593 360" fill="purple"/><text class="exonnr" x="487.0" y="350.0">53</text><polygon points="598 360 598 340 748.0 340 753 340 748.0 350.0 753 360 748.0 360" fill="purple"/><text class="exonnr" x="675.5" y="350.0">54</text><polygon points="763.0 360 758 350.0 763.0 340 948 340 948 360" fill="purple"/><text class="exonnr" x="853.0" y="350.0">55</text><polygon points="20 400 20 380 188.0 380 193 380 188.0 390.0 193 400 188.0 400" fill="purple"/><text class="exonnr" x="106.5" y="390.0">56</text><polygon points="203.0 400 198 390.0 203.0 380 355 380 355 400" fill="purple"/><text class="exonnr" x="276.5" y="390.0">57</text><polygon points="360 400 360 380 476.0 380 481 390.0 476.0 400" fill="purple"/><text class="exonnr" x="420.5" y="390.0">58</text><polygon points="486 400 491.0 390.0 486 380 755 380 755 400" fill="purple"/><text class="exonnr" x="620.5" y="390.0">59</text><polygon points="760 400 760 380 907 380 907 400" fill="purple"/><text class="exonnr" x="833.5" y="390.0">60</text><polygon points="20 440 20 420 94.0 420 99 430.0 94.0 440" fill="purple"/><text class="exonnr" x="59.5" y="430.0">61</text><polygon points="104 440 109.0 430.0 104 420 160.0 420 165 420 160.0 430.0 165 440 160.0 440" fill="purple"/><text class="exonnr" x="134.5" y="430.0">62</text><polygon points="175.0 440 170 430.0 175.0 420 227.0 420 232 430.0 227.0 440" fill="purple"/><text class="exonnr" x="201.0" y="430.0">63</text><polygon points="237 440 242.0 430.0 237 420 307.0 420 312 430.0 307.0 440" fill="purple"/><text class="exonnr" x="274.5" y="430.0">64</text><polygon points="317 440 322.0 430.0 317 420 514.0 420 519 420 514.0 430.0 519 440 514.0 440" fill="purple"/><text class="exonnr" x="418.0" y="430.0">65</text><polygon points="529.0 440 524 430.0 529.0 420 605.0 420 610 430.0 605.0 440" fill="purple"/><text class="exonnr" x="567.0" y="430.0">66</text><polygon points="615 440 620.0 430.0 615 420 773 420 773 440" fill="purple"/><text class="exonnr" x="694.0" y="430.0">67</text><polygon points="778 440 778 420 940.0 420 945 420 940.0 430.0 945 440 940.0 440" fill="purple"/><text class="exonnr" x="861.5" y="430.0">68</text><polygon points="25.0 480 20 470.0 25.0 460 132 460 132 480" fill="purple"/><text class="exonnr" x="76.0" y="470.0">69</text><polygon points="137 480 137 460 269.0 460 274 460 269.0 470.0 274 480 269.0 480" fill="purple"/><text class="exonnr" x="205.5" y="470.0">70</text><polygon points="284.0 480 279 470.0 284.0 460 313.0 460 318 460 313.0 470.0 318 480 313.0 480" fill="purple"/><text class="exonnr" x="298.5" y="470.0">71</text><polygon points="328.0 480 323 470.0 328.0 460 384.0 460 389 460 384.0 470.0 389 480 384.0 480" fill="purple"/><text class="exonnr" x="356.0" y="470.0">72</text><polygon points="399.0 480 394 470.0 399.0 460 455.0 460 460 460 455.0 470.0 460 480 455.0 480" fill="purple"/><text class="exonnr" x="427.0" y="470.0">73</text><polygon points="470.0 480 465 470.0 470.0 460 619.0 460 624 460 619.0 470.0 624 480 619.0 480" fill="purple"/><text class="exonnr" x="544.5" y="470.0">74</text><polygon points="634.0 480 629 470.0 634.0 460 873 460 873 480" fill="purple"/><text class="exonnr" x="751.0" y="470.0">75</text><polygon points="878 480 878 460 997.0 460 1002 470.0 997.0 480" fill="purple"/><text class="exonnr" x="940.0" y="470.0">76</text><polygon points="20 520 25.0 510.0 20 500 108.0 500 113 510.0 108.0 520" fill="purple"/><text class="exonnr" x="66.5" y="510.0">77</text><polygon points="118 520 123.0 510.0 118 500 150 500 150 520" fill="purple"/><text class="exonnr" x="134.0" y="510.0">78</text><polygon points="155 520 155 500 167 500 167 520" fill="purple"/><text class="exonnr" x="161.0" y="510.0">79</text><style >
.legend { font: 16.0px sans-serif; fill: black; dominant-baseline: central; }
</style><style >
.exonnr { text-anchor: middle; dominant-baseline: central; font: 10.0px sans-serif; fill: white;}
</style></svg>
