<svg xmlns="http://www.w3.org/2000/svg" width="1003.0" height="500"><polygon stroke="red" stroke-width="0" points="10 0 41 0 51.0 10.0 41 20 10 20 10 0" fill="#4C72B7"/><polygon stroke="red" stroke-width="0" points="46.0 0 108.0 0 108.0 20 46.0 20 56.0 10.0 46.0 0" fill="#4C72B7"/><polygon stroke="red" stroke-width="0" points="113.0 0 206.0 0 206.0 20 113.0 20 113.0 0" fill="#4C72B7"/><polygon stroke="red" stroke-width="0" points="211.0 0 289.0 0 289.0 20 211.0 20 211.0 0" fill="#4C72B7"/><polygon stroke="red" stroke-width="0" points="294.0 0 387.0 0 387.0 20 294.0 20 294.0 0" fill="#4C72B7"/><polygon stroke="red" stroke-width="0" points="392.0 0 565.0 0 555.0 10.0 565.0 20 392.0 20 392.0 0" fill="#4C72B7"/><polygon stroke="red" stroke-width="0" points="570.0 0 689.0 0 699.0 10.0 689.0 20 570.0 20 560.0 10.0 570.0 0" fill="#4C72B7"/><polygon stroke="red" stroke-width="0" points="694.0 0 876.0 0 876.0 20 694.0 20 704.0 10.0 694.0 0" fill="#4C72B7"/><polygon stroke="red" stroke-width="0" points="10 40 139 40 139 60 10 60 10 40" fill="#4C72B7"/><polygon stroke="red" stroke-width="0" points="144.0 40 333.0 40 333.0 60 144.0 60 144.0 40" fill="#4C72B7"/><polygon stroke="red" stroke-width="0" points="338.0 40 520.0 40 510.0 50.0 520.0 60 338.0 60 338.0 40" fill="#4C72B7"/><polygon stroke="red" stroke-width="0" points="525.0 40 676.0 40 676.0 60 525.0 60 515.0 50.0 525.0 40" fill="#4C72B7"/><polygon stroke="red" stroke-width="0" points="681.0 40 801.0 40 801.0 60 681.0 60 681.0 40" fill="#4C72B7"/><polygon stroke="red" stroke-width="0" points="806.0 40 908.0 40 908.0 60 806.0 60 806.0 40" fill="#4C72B7"/><polygon stroke="red" stroke-width="0" points="10 80 118 80 118 100 10 100 10 80" fill="#4C72B7"/><polygon stroke="red" stroke-width="0" points="123.0 80 303.0 80 303.0 100 123.0 100 123.0 80" fill="#4C72B7"/><polygon stroke="red" stroke-width="0" points="308.0 80 484.0 80 474.0 90.0 484.0 100 308.0 100 308.0 80" fill="#4C72B7"/><polygon stroke="red" stroke-width="0" points="489.0 80 613.0 80 613.0 100 489.0 100 479.0 90.0 489.0 80" fill="#4C72B7"/><polygon stroke="red" stroke-width="0" points="618.0 80 706.0 80 716.0 90.0 706.0 100 618.0 100 618.0 80" fill="#4C72B7"/><polygon stroke="red" stroke-width="0" points="711.0 80 953.0 80 953.0 100 711.0 100 721.0 90.0 711.0 80" fill="#4C72B7"/><polygon stroke="red" stroke-width="0" points="10 120 191 120 201.0 130.0 191 140 10 140 10 120" fill="#4C72B7"/><polygon stroke="red" stroke-width="0" points="196.0 120 342.0 120 342.0 140 196.0 140 206.0 130.0 196.0 120" fill="#4C72B7"/><polygon stroke="red" stroke-width="0" points="347.0 120 560.0 120 560.0 140 347.0 140 347.0 120" fill="#4C72B7"/><polygon stroke="red" stroke-width="0" points="565.0 120 679.0 120 679.0 140 565.0 140 565.0 120" fill="#4C72B7"/><polygon stroke="red" stroke-width="0" points="684.0 120 840.0 120 840.0 140 684.0 140 684.0 120" fill="#4C72B7"/><polygon stroke="red" stroke-width="0" points="10 160 181 160 181 180 10 180 10 160" fill="#4C72B7"/><polygon stroke="red" stroke-width="0" points="186.0 160 369.0 160 369.0 180 186.0 180 186.0 160" fill="#4C72B7"/><polygon stroke="red" stroke-width="0" points="374.0 160 509.0 160 509.0 180 374.0 180 374.0 160" fill="#4C72B7"/><polygon stroke="red" stroke-width="0" points="514.0 160 664.0 160 664.0 180 514.0 180 514.0 160" fill="#4C72B7"/><polygon stroke="red" stroke-width="0" points="669.0 160 831.0 160 831.0 180 669.0 180 669.0 160" fill="#4C72B7"/><polygon stroke="red" stroke-width="0" points="836.0 160 947.0 160 947.0 180 836.0 180 836.0 160" fill="#4C72B7"/><polygon stroke="red" stroke-width="0" points="10 200 184 200 184 220 10 220 10 200" fill="#4C72B7"/><polygon stroke="red" stroke-width="0" points="189.0 200 345.0 200 345.0 220 189.0 220 189.0 200" fill="#4C72B7"/><polygon stroke="red" stroke-width="0" points="350.0 200 521.0 200 521.0 220 350.0 220 350.0 200" fill="#4C72B7"/><polygon stroke="red" stroke-width="0" points="526.0 200 706.0 200 706.0 220 526.0 220 526.0 200" fill="#4C72B7"/><polygon stroke="red" stroke-width="0" points="711.0 200 840.0 200 840.0 220 711.0 220 711.0 200" fill="#4C72B7"/><polygon stroke="red" stroke-width="0" points="10 240 181 240 181 260 10 260 10 240" fill="#4C72B7"/><polygon stroke="red" stroke-width="0" points="186.0 240 309.0 240 309.0 260 186.0 260 186.0 240" fill="#4C72B7"/><polygon stroke="red" stroke-width="0" points="314.0 240 452.0 240 452.0 260 314.0 260 314.0 240" fill="#4C72B7"/><polygon stroke="red" stroke-width="0" points="457.0 240 610.0 240 610.0 260 457.0 260 457.0 240" fill="#4C72B7"/><polygon stroke="red" stroke-width="0" points="615.0 240 798.0 240 798.0 260 615.0 260 615.0 240" fill="#4C72B7"/><polygon stroke="red" stroke-width="0" points="803.0 240 998.0 240 998.0 260 803.0 260 803.0 240" fill="#4C72B7"/><polygon stroke="red" stroke-width="0" points="10 280 183 280 173.0 290.0 183 300 10 300 10 280" fill="#4C72B7"/><polygon stroke="red" stroke-width="0" points="188.0 280 336.0 280 336.0 300 188.0 300 178.0 290.0 188.0 280" fill="#4C72B7"/><polygon stroke="red" stroke-width="0" points="341.0 280 517.0 280 507.0 290.0 517.0 300 341.0 300 341.0 280" fill="#4C72B7"/><polygon stroke="red" stroke-width="0" points="522.0 280 670.0 280 670.0 300 522.0 300 512.0 290.0 522.0 280" fill="#4C72B7"/><polygon stroke="red" stroke-width="0" points="675.0 280 825.0 280 825.0 300 675.0 300 675.0 280" fill="#4C72B7"/><polygon stroke="red" stroke-width="0" points="10 320 196 320 196 340 10 340 10 320" fill="#4C72B7"/><polygon stroke="red" stroke-width="0" points="201.0 320 303.0 320 303.0 340 201.0 340 201.0 320" fill="#4C72B7"/><polygon stroke="red" stroke-width="0" points="308.0 320 417.0 320 427.0 330.0 417.0 340 308.0 340 308.0 320" fill="#4C72B7"/><polygon stroke="red" stroke-width="0" points="422.0 320 655.0 320 655.0 340 422.0 340 432.0 330.0 422.0 320" fill="#4C72B7"/><polygon stroke="red" stroke-width="0" points="660.0 320 778.0 320 788.0 330.0 778.0 340 660.0 340 660.0 320" fill="#4C72B7"/><polygon stroke="red" stroke-width="0" points="783.0 320 995.0 320 995.0 340 783.0 340 793.0 330.0 783.0 320" fill="#4C72B7"/><polygon stroke="red" stroke-width="0" points="10 360 165 360 155.0 370.0 165 380 10 380 10 360" fill="#4C72B7"/><polygon stroke="red" stroke-width="0" points="170.0 360 360.0 360 360.0 380 170.0 380 160.0 370.0 170.0 360" fill="#4C72B7"/><polygon stroke="red" stroke-width="0" points="365.0 360 538.0 360 528.0 370.0 538.0 380 365.0 380 365.0 360" fill="#4C72B7"/><polygon stroke="red" stroke-width="0" points="543.0 360 700.0 360 700.0 380 543.0 380 533.0 370.0 543.0 360" fill="#4C72B7"/><polygon stroke="red" stroke-width="0" points="705.0 360 826.0 360 836.0 370.0 826.0 380 705.0 380 705.0 360" fill="#4C72B7"/><polygon stroke="red" stroke-width="0" points="10 400 279 400 279 420 10 420 20.0 410.0 10 400" fill="#4C72B7"/><polygon stroke="red" stroke-width="0" points="284.0 400 431.0 400 431.0 420 284.0 420 284.0 400" fill="#4C72B7"/><polygon stroke="red" stroke-width="0" points="436.0 400 515.0 400 525.0 410.0 515.0 420 436.0 420 436.0 400" fill="#4C72B7"/><polygon stroke="red" stroke-width="0" points="520.0 400 581.0 400 571.0 410.0 581.0 420 520.0 420 530.0 410.0 520.0 400" fill="#4C72B7"/><polygon stroke="red" stroke-width="0" points="586.0 400 648.0 400 658.0 410.0 648.0 420 586.0 420 576.0 410.0 586.0 400" fill="#4C72B7"/><polygon stroke="red" stroke-width="0" points="653.0 400 728.0 400 738.0 410.0 728.0 420 653.0 420 663.0 410.0 653.0 400" fill="#4C72B7"/><polygon stroke="red" stroke-width="0" points="733.0 400 935.0 400 925.0 410.0 935.0 420 733.0 420 743.0 410.0 733.0 400" fill="#4C72B7"/><polygon stroke="red" stroke-width="0" points="10 440 96 440 106.0 450.0 96 460 10 460 0.0 450.0 10 440" fill="#4C72B7"/><polygon stroke="red" stroke-width="0" points="101.0 440 259.0 440 259.0 460 101.0 460 111.0 450.0 101.0 440" fill="#4C72B7"/><polygon stroke="red" stroke-width="0" points="264.0 440 431.0 440 421.0 450.0 431.0 460 264.0 460 264.0 440" fill="#4C72B7"/><polygon stroke="red" stroke-width="0" points="436.0 440 548.0 440 548.0 460 436.0 460 426.0 450.0 436.0 440" fill="#4C72B7"/><polygon stroke="red" stroke-width="0" points="553.0 440 690.0 440 680.0 450.0 690.0 460 553.0 460 553.0 440" fill="#4C72B7"/><polygon stroke="red" stroke-width="0" points="695.0 440 734.0 440 724.0 450.0 734.0 460 695.0 460 685.0 450.0 695.0 440" fill="#4C72B7"/><polygon stroke="red" stroke-width="0" points="739.0 440 805.0 440 795.0 450.0 805.0 460 739.0 460 729.0 450.0 739.0 440" fill="#4C72B7"/><polygon stroke="red" stroke-width="0" points="810.0 440 876.0 440 866.0 450.0 876.0 460 810.0 460 800.0 450.0 810.0 440" fill="#4C72B7"/><polygon stroke="red" stroke-width="0" points="10 480 169 480 159.0 490.0 169 500 10 500 0.0 490.0 10 480" fill="#4C72B7"/><polygon stroke="red" stroke-width="0" points="174.0 480 418.0 480 418.0 500 174.0 500 164.0 490.0 174.0 480" fill="#4C72B7"/><polygon stroke="red" stroke-width="0" points="423.0 480 547.0 480 557.0 490.0 547.0 500 423.0 500 423.0 480" fill="#4C72B7"/><polygon stroke="red" stroke-width="0" points="552.0 480 645.0 480 655.0 490.0 645.0 500 552.0 500 562.0 490.0 552.0 480" fill="#4C72B7"/><polygon stroke="red" stroke-width="0" points="650.0 480 682.0 480 682.0 500 650.0 500 660.0 490.0 650.0 480" fill="#4C72B7"/><polygon stroke="red" stroke-width="0" points="687.0 480 699.0 480 699.0 500 687.0 500 687.0 480" fill="#4C72B7"/></svg>
