<svg xmlns="http://www.w3.org/2000/svg" width="1044" height="480"><polygon points="20 40 20 20 46.0 20 51 30.0 46.0 40" fill="purple"/><text class="exonnr" x="35.5" y="30.0">1</text><polygon points="56 40 61.0 30.0 56 20 118 20 118 40" fill="purple"/><text class="exonnr" x="87.0" y="30.0">2</text><polygon points="123 40 123 20 216 20 216 40" fill="purple"/><text class="exonnr" x="169.5" y="30.0">3</text><polygon points="221 40 221 20 299 20 299 40" fill="purple"/><text class="exonnr" x="260.0" y="30.0">4</text><polygon points="304 40 304 20 397 20 397 40" fill="purple"/><text class="exonnr" x="350.5" y="30.0">5</text><polygon points="402 40 402 20 570.0 20 575 20 570.0 30.0 575 40 570.0 40" fill="purple"/><text class="exonnr" x="488.5" y="30.0">6</text><polygon points="585.0 40 580 30.0 585.0 20 694.0 20 699 30.0 694.0 40" fill="purple"/><text class="exonnr" x="639.5" y="30.0">7</text><polygon points="704 40 709.0 30.0 704 20 886 20 886 40" fill="purple"/><text class="exonnr" x="795.0" y="30.0">8</text><polygon points="891 40 891 20 1020 20 1020 40" fill="purple"/><text class="exonnr" x="955.5" y="30.0">9</text><polygon points="20 80 20 60 209 60 209 80" fill="purple"/><text class="exonnr" x="114.5" y="70.0">10</text><polygon points="214 80 214 60 391.0 60 396 60 391.0 70.0 396 80 391.0 80" fill="purple"/><text class="exonnr" x="305.0" y="70.0">11</text><polygon points="406.0 80 401 70.0 406.0 60 552 60 552 80" fill="purple"/><text class="exonnr" x="476.5" y="70.0">12</text><polygon points="557 80 557 60 677 60 677 80" fill="purple"/><text class="exonnr" x="617.0" y="70.0">13</text><polygon points="682 80 682 60 784 60 784 80" fill="purple"/><text class="exonnr" x="733.0" y="70.0">14</text><polygon points="789 80 789 60 897 60 897 80" fill="purple"/><text class="exonnr" x="843.0" y="70.0">15</text><polygon points="902 80 902 60 1044 60 1044 80" fill="purple"/><text class="exonnr" x="973.0" y="70.0">16</text><polygon points="20 120 20 100 58 100 58 120" fill="purple"/><text class="exonnr" x="39.0" y="110.0">16</text><polygon points="63 120 63 100 234.0 100 239 100 234.0 110.0 239 120 234.0 120" fill="purple"/><text class="exonnr" x="151.0" y="110.0">17</text><polygon points="249.0 120 244 110.0 249.0 100 368 100 368 120" fill="purple"/><text class="exonnr" x="306.0" y="110.0">18</text><polygon points="373 120 373 100 456.0 100 461 110.0 456.0 120" fill="purple"/><text class="exonnr" x="417.0" y="110.0">19</text><polygon points="466 120 471.0 110.0 466 100 708 100 708 120" fill="purple"/><text class="exonnr" x="587.0" y="110.0">20</text><polygon points="713 120 713 100 889.0 100 894 110.0 889.0 120" fill="purple"/><text class="exonnr" x="803.5" y="110.0">21</text><polygon points="899 120 904.0 110.0 899 100 1044 100 1044 120" fill="purple"/><text class="exonnr" x="971.5" y="110.0">22</text><polygon points="20 160 20 140 21 140 21 160" fill="purple"/><text class="exonnr" x="20.5" y="150.0">22</text><polygon points="26 160 26 140 239 140 239 160" fill="purple"/><text class="exonnr" x="132.5" y="150.0">23</text><polygon points="244 160 244 140 358 140 358 160" fill="purple"/><text class="exonnr" x="301.0" y="150.0">24</text><polygon points="363 160 363 140 519 140 519 160" fill="purple"/><text class="exonnr" x="441.0" y="150.0">25</text><polygon points="524 160 524 140 695 140 695 160" fill="purple"/><text class="exonnr" x="609.5" y="150.0">26</text><polygon points="700 160 700 140 883 140 883 160" fill="purple"/><text class="exonnr" x="791.5" y="150.0">27</text><polygon points="888 160 888 140 1023 140 1023 160" fill="purple"/><text class="exonnr" x="955.5" y="150.0">28</text><polygon points="20 200 20 180 170 180 170 200" fill="purple"/><text class="exonnr" x="95.0" y="190.0">29</text><polygon points="175 200 175 180 337 180 337 200" fill="purple"/><text class="exonnr" x="256.0" y="190.0">30</text><polygon points="342 200 342 180 453 180 453 200" fill="purple"/><text class="exonnr" x="397.5" y="190.0">31</text><polygon points="458 200 458 180 632 180 632 200" fill="purple"/><text class="exonnr" x="545.0" y="190.0">32</text><polygon points="637 200 637 180 793 180 793 200" fill="purple"/><text class="exonnr" x="715.0" y="190.0">33</text><polygon points="798 200 798 180 969 180 969 200" fill="purple"/><text class="exonnr" x="883.5" y="190.0">34</text><polygon points="974 200 974 180 1044 180 1044 200" fill="purple"/><text class="exonnr" x="1009.0" y="190.0">35</text><polygon points="20 240 20 220 130 220 130 240" fill="purple"/><text class="exonnr" x="75.0" y="230.0">35</text><polygon points="135 240 135 220 264 220 264 240" fill="purple"/><text class="exonnr" x="199.5" y="230.0">36</text><polygon points="269 240 269 220 440 220 440 240" fill="purple"/><text class="exonnr" x="354.5" y="230.0">37</text><polygon points="445 240 445 220 568 220 568 240" fill="purple"/><text class="exonnr" x="506.5" y="230.0">38</text><polygon points="573 240 573 220 711 220 711 240" fill="purple"/><text class="exonnr" x="642.0" y="230.0">39</text><polygon points="716 240 716 220 869 220 869 240" fill="purple"/><text class="exonnr" x="792.5" y="230.0">40</text><polygon points="874 240 874 220 1044 220 1044 240" fill="purple"/><text class="exonnr" x="959.0" y="230.0">41</text><polygon points="20 280 20 260 33 260 33 280" fill="purple"/><text class="exonnr" x="26.5" y="270.0">41</text><polygon points="38 280 38 260 233 260 233 280" fill="purple"/><text class="exonnr" x="135.5" y="270.0">42</text><polygon points="238 280 238 260 406.0 260 411 260 406.0 270.0 411 280 406.0 280" fill="purple"/><text class="exonnr" x="324.5" y="270.0">43</text><polygon points="421.0 280 416 270.0 421.0 260 564 260 564 280" fill="purple"/><text class="exonnr" x="490.0" y="270.0">44</text><polygon points="569 280 569 260 740.0 260 745 260 740.0 270.0 745 280 740.0 280" fill="purple"/><text class="exonnr" x="657.0" y="270.0">45</text><polygon points="755.0 280 750 270.0 755.0 260 898 260 898 280" fill="purple"/><text class="exonnr" x="824.0" y="270.0">46</text><polygon points="903 280 903 260 1044 260 1044 280" fill="purple"/><text class="exonnr" x="973.5" y="270.0">47</text><polygon points="20 320 20 300 29 300 29 320" fill="purple"/><text class="exonnr" x="24.5" y="310.0">47</text><polygon points="34 320 34 300 220 300 220 320" fill="purple"/><text class="exonnr" x="127.0" y="310.0">48</text><polygon points="225 320 225 300 327 300 327 320" fill="purple"/><text class="exonnr" x="276.0" y="310.0">49</text><polygon points="332 320 332 300 436.0 300 441 310.0 436.0 320" fill="purple"/><text class="exonnr" x="386.5" y="310.0">50</text><polygon points="446 320 451.0 310.0 446 300 679 300 679 320" fill="purple"/><text class="exonnr" x="562.5" y="310.0">51</text><polygon points="684 320 684 300 797.0 300 802 310.0 797.0 320" fill="purple"/><text class="exonnr" x="743.0" y="310.0">52</text><polygon points="807 320 812.0 310.0 807 300 1019 300 1019 320" fill="purple"/><text class="exonnr" x="913.0" y="310.0">53</text><polygon points="20 360 20 340 170.0 340 175 340 170.0 350.0 175 360 170.0 360" fill="purple"/><text class="exonnr" x="97.5" y="350.0">54</text><polygon points="185.0 360 180 350.0 185.0 340 370 340 370 360" fill="purple"/><text class="exonnr" x="275.0" y="350.0">55</text><polygon points="375 360 375 340 543.0 340 548 340 543.0 350.0 548 360 543.0 360" fill="purple"/><text class="exonnr" x="461.5" y="350.0">56</text><polygon points="558.0 360 553 350.0 558.0 340 710 340 710 360" fill="purple"/><text class="exonnr" x="631.5" y="350.0">57</text><polygon points="715 360 715 340 831.0 340 836 350.0 831.0 360" fill="purple"/><text class="exonnr" x="775.5" y="350.0">58</text><polygon points="841 360 846.0 350.0 841 340 1044 340 1044 360" fill="purple"/><text class="exonnr" x="942.5" y="350.0">59</text><polygon points="20 400 20 380 86 380 86 400" fill="purple"/><text class="exonnr" x="53.0" y="390.0">59</text><polygon points="91 400 91 380 238 380 238 400" fill="purple"/><text class="exonnr" x="164.5" y="390.0">60</text><polygon points="243 400 243 380 317.0 380 322 390.0 317.0 400" fill="purple"/><text class="exonnr" x="282.5" y="390.0">61</text><polygon points="327 400 332.0 390.0 327 380 383.0 380 388 380 383.0 390.0 388 400 383.0 400" fill="purple"/><text class="exonnr" x="357.5" y="390.0">62</text><polygon points="398.0 400 393 390.0 398.0 380 450.0 380 455 390.0 450.0 400" fill="purple"/><text class="exonnr" x="424.0" y="390.0">63</text><polygon points="460 400 465.0 390.0 460 380 530.0 380 535 390.0 530.0 400" fill="purple"/><text class="exonnr" x="497.5" y="390.0">64</text><polygon points="540 400 545.0 390.0 540 380 737.0 380 742 380 737.0 390.0 742 400 737.0 400" fill="purple"/><text class="exonnr" x="641.0" y="390.0">65</text><polygon points="752.0 400 747 390.0 752.0 380 828.0 380 833 390.0 828.0 400" fill="purple"/><text class="exonnr" x="790.0" y="390.0">66</text><polygon points="838 400 843.0 390.0 838 380 996 380 996 400" fill="purple"/><text class="exonnr" x="917.0" y="390.0">67</text><polygon points="1001 400 1001 380 1044 380 1044 400" fill="purple"/><text class="exonnr" x="1022.5" y="390.0">68</text><polygon points="20 440 20 420 139.0 420 144 420 139.0 430.0 144 440 139.0 440" fill="purple"/><text class="exonnr" x="82.0" y="430.0">68</text><polygon points="154.0 440 149 430.0 154.0 420 261 420 261 440" fill="purple"/><text class="exonnr" x="205.0" y="430.0">69</text><polygon points="266 440 266 420 398.0 420 403 420 398.0 430.0 403 440 398.0 440" fill="purple"/><text class="exonnr" x="334.5" y="430.0">70</text><polygon points="413.0 440 408 430.0 413.0 420 442.0 420 447 420 442.0 430.0 447 440 442.0 440" fill="purple"/><text class="exonnr" x="427.5" y="430.0">71</text><polygon points="457.0 440 452 430.0 457.0 420 513.0 420 518 420 513.0 430.0 518 440 513.0 440" fill="purple"/><text class="exonnr" x="485.0" y="430.0">72</text><polygon points="528.0 440 523 430.0 528.0 420 584.0 420 589 420 584.0 430.0 589 440 584.0 440" fill="purple"/><text class="exonnr" x="556.0" y="430.0">73</text><polygon points="599.0 440 594 430.0 599.0 420 748.0 420 753 420 748.0 430.0 753 440 748.0 440" fill="purple"/><text class="exonnr" x="673.5" y="430.0">74</text><polygon points="763.0 440 758 430.0 763.0 420 1002 420 1002 440" fill="purple"/><text class="exonnr" x="880.0" y="430.0">75</text><polygon points="20 480 20 460 139.0 460 144 470.0 139.0 480" fill="purple"/><text class="exonnr" x="82.0" y="470.0">76</text><polygon points="149 480 154.0 470.0 149 460 237.0 460 242 470.0 237.0 480" fill="purple"/><text class="exonnr" x="195.5" y="470.0">77</text><polygon points="247 480 252.0 470.0 247 460 279 460 279 480" fill="purple"/><text class="exonnr" x="263.0" y="470.0">78</text><polygon points="284 480 284 460 296 460 296 480" fill="purple"/><text class="exonnr" x="290.0" y="470.0">79</text><style >
.legend { font: 16.0px sans-serif; fill: black; dominant-baseline: central; }
</style><style >
.exonnr { text-anchor: middle; dominant-baseline: central; font: 10.0px sans-serif; fill: white;}
</style></svg>
