<svg xmlns="http://www.w3.org/2000/svg" width="1003" height="500"><polygon stroke="red" stroke-width="0" points="10 0 41 0 51.0 10.0 41 20 10 20 10 0" fill="purple"/><polygon stroke="red" stroke-width="0" points="46 0 108 0 108 20 46 20 56.0 10.0 46 0" fill="purple"/><polygon stroke="red" stroke-width="0" points="113 0 206 0 206 20 113 20 113 0" fill="purple"/><polygon stroke="red" stroke-width="0" points="211 0 289 0 289 20 211 20 211 0" fill="purple"/><polygon stroke="red" stroke-width="0" points="294 0 387 0 387 20 294 20 294 0" fill="purple"/><polygon stroke="red" stroke-width="0" points="392 0 565 0 555.0 10.0 565 20 392 20 392 0" fill="purple"/><polygon stroke="red" stroke-width="0" points="570 0 689 0 699.0 10.0 689 20 570 20 560.0 10.0 570 0" fill="purple"/><polygon stroke="red" stroke-width="0" points="694 0 876 0 876 20 694 20 704.0 10.0 694 0" fill="purple"/><polygon stroke="red" stroke-width="0" points="10 40 139 40 139 60 10 60 10 40" fill="purple"/><polygon stroke="red" stroke-width="0" points="144 40 333 40 333 60 144 60 144 40" fill="purple"/><polygon stroke="red" stroke-width="0" points="338 40 520 40 510.0 50.0 520 60 338 60 338 40" fill="purple"/><polygon stroke="red" stroke-width="0" points="525 40 676 40 676 60 525 60 515.0 50.0 525 40" fill="purple"/><polygon stroke="red" stroke-width="0" points="681 40 801 40 801 60 681 60 681 40" fill="purple"/><polygon stroke="red" stroke-width="0" points="806 40 908 40 908 60 806 60 806 40" fill="purple"/><polygon stroke="red" stroke-width="0" points="10 80 118 80 118 100 10 100 10 80" fill="purple"/><polygon stroke="red" stroke-width="0" points="123 80 303 80 303 100 123 100 123 80" fill="purple"/><polygon stroke="red" stroke-width="0" points="308 80 484 80 474.0 90.0 484 100 308 100 308 80" fill="purple"/><polygon stroke="red" stroke-width="0" points="489 80 613 80 613 100 489 100 479.0 90.0 489 80" fill="purple"/><polygon stroke="red" stroke-width="0" points="618 80 706 80 716.0 90.0 706 100 618 100 618 80" fill="purple"/><polygon stroke="red" stroke-width="0" points="711 80 953 80 953 100 711 100 721.0 90.0 711 80" fill="purple"/><polygon stroke="red" stroke-width="0" points="10 120 191 120 201.0 130.0 191 140 10 140 10 120" fill="purple"/><polygon stroke="red" stroke-width="0" points="196 120 342 120 342 140 196 140 206.0 130.0 196 120" fill="purple"/><polygon stroke="red" stroke-width="0" points="347 120 560 120 560 140 347 140 347 120" fill="purple"/><polygon stroke="red" stroke-width="0" points="565 120 679 120 679 140 565 140 565 120" fill="purple"/><polygon stroke="red" stroke-width="0" points="684 120 840 120 840 140 684 140 684 120" fill="purple"/><polygon stroke="red" stroke-width="0" points="10 160 181 160 181 180 10 180 10 160" fill="purple"/><polygon stroke="red" stroke-width="0" points="186 160 369 160 369 180 186 180 186 160" fill="purple"/><polygon stroke="red" stroke-width="0" points="374 160 509 160 509 180 374 180 374 160" fill="purple"/><polygon stroke="red" stroke-width="0" points="514 160 664 160 664 180 514 180 514 160" fill="purple"/><polygon stroke="red" stroke-width="0" points="669 160 831 160 831 180 669 180 669 160" fill="purple"/><polygon stroke="red" stroke-width="0" points="836 160 947 160 947 180 836 180 836 160" fill="purple"/><polygon stroke="red" stroke-width="0" points="10 200 184 200 184 220 10 220 10 200" fill="purple"/><polygon stroke="red" stroke-width="0" points="189 200 345 200 345 220 189 220 189 200" fill="purple"/><polygon stroke="red" stroke-width="0" points="350 200 521 200 521 220 350 220 350 200" fill="purple"/><polygon stroke="red" stroke-width="0" points="526 200 706 200 706 220 526 220 526 200" fill="purple"/><polygon stroke="red" stroke-width="0" points="711 200 840 200 840 220 711 220 711 200" fill="purple"/><polygon stroke="red" stroke-width="0" points="10 240 181 240 181 260 10 260 10 240" fill="purple"/><polygon stroke="red" stroke-width="0" points="186 240 309 240 309 260 186 260 186 240" fill="purple"/><polygon stroke="red" stroke-width="0" points="314 240 452 240 452 260 314 260 314 240" fill="purple"/><polygon stroke="red" stroke-width="0" points="457 240 610 240 610 260 457 260 457 240" fill="purple"/><polygon stroke="red" stroke-width="0" points="615 240 798 240 798 260 615 260 615 240" fill="purple"/><polygon stroke="red" stroke-width="0" points="803 240 998 240 998 260 803 260 803 240" fill="purple"/><polygon stroke="red" stroke-width="0" points="10 280 183 280 173.0 290.0 183 300 10 300 10 280" fill="purple"/><polygon stroke="red" stroke-width="0" points="188 280 336 280 336 300 188 300 178.0 290.0 188 280" fill="purple"/><polygon stroke="red" stroke-width="0" points="341 280 517 280 507.0 290.0 517 300 341 300 341 280" fill="purple"/><polygon stroke="red" stroke-width="0" points="522 280 670 280 670 300 522 300 512.0 290.0 522 280" fill="purple"/><polygon stroke="red" stroke-width="0" points="675 280 825 280 825 300 675 300 675 280" fill="purple"/><polygon stroke="red" stroke-width="0" points="10 320 196 320 196 340 10 340 10 320" fill="purple"/><polygon stroke="red" stroke-width="0" points="201 320 303 320 303 340 201 340 201 320" fill="purple"/><polygon stroke="red" stroke-width="0" points="308 320 417 320 427.0 330.0 417 340 308 340 308 320" fill="purple"/><polygon stroke="red" stroke-width="0" points="422 320 655 320 655 340 422 340 432.0 330.0 422 320" fill="purple"/><polygon stroke="red" stroke-width="0" points="660 320 778 320 788.0 330.0 778 340 660 340 660 320" fill="purple"/><polygon stroke="red" stroke-width="0" points="783 320 995 320 995 340 783 340 793.0 330.0 783 320" fill="purple"/><polygon stroke="red" stroke-width="0" points="10 360 165 360 155.0 370.0 165 380 10 380 10 360" fill="purple"/><polygon stroke="red" stroke-width="0" points="170 360 360 360 360 380 170 380 160.0 370.0 170 360" fill="purple"/><polygon stroke="red" stroke-width="0" points="365 360 538 360 528.0 370.0 538 380 365 380 365 360" fill="purple"/><polygon stroke="red" stroke-width="0" points="543 360 700 360 700 380 543 380 533.0 370.0 543 360" fill="purple"/><polygon stroke="red" stroke-width="0" points="705 360 826 360 836.0 370.0 826 380 705 380 705 360" fill="purple"/><polygon stroke="red" stroke-width="0" points="10 400 279 400 279 420 10 420 20.0 410.0 10 400" fill="purple"/><polygon stroke="red" stroke-width="0" points="284 400 431 400 431 420 284 420 284 400" fill="purple"/><polygon stroke="red" stroke-width="0" points="436 400 515 400 525.0 410.0 515 420 436 420 436 400" fill="purple"/><polygon stroke="red" stroke-width="0" points="520 400 581 400 571.0 410.0 581 420 520 420 530.0 410.0 520 400" fill="purple"/><polygon stroke="red" stroke-width="0" points="586 400 648 400 658.0 410.0 648 420 586 420 576.0 410.0 586 400" fill="purple"/><polygon stroke="red" stroke-width="0" points="653 400 728 400 738.0 410.0 728 420 653 420 663.0 410.0 653 400" fill="purple"/><polygon stroke="red" stroke-width="0" points="733 400 935 400 925.0 410.0 935 420 733 420 743.0 410.0 733 400" fill="purple"/><polygon stroke="red" stroke-width="0" points="10 440 96 440 106.0 450.0 96 460 10 460 0.0 450.0 10 440" fill="purple"/><polygon stroke="red" stroke-width="0" points="101 440 259 440 259 460 101 460 111.0 450.0 101 440" fill="purple"/><polygon stroke="red" stroke-width="0" points="264 440 431 440 421.0 450.0 431 460 264 460 264 440" fill="purple"/><polygon stroke="red" stroke-width="0" points="436 440 548 440 548 460 436 460 426.0 450.0 436 440" fill="purple"/><polygon stroke="red" stroke-width="0" points="553 440 690 440 680.0 450.0 690 460 553 460 553 440" fill="purple"/><polygon stroke="red" stroke-width="0" points="695 440 734 440 724.0 450.0 734 460 695 460 685.0 450.0 695 440" fill="purple"/><polygon stroke="red" stroke-width="0" points="739 440 805 440 795.0 450.0 805 460 739 460 729.0 450.0 739 440" fill="purple"/><polygon stroke="red" stroke-width="0" points="810 440 876 440 866.0 450.0 876 460 810 460 800.0 450.0 810 440" fill="purple"/><polygon stroke="red" stroke-width="0" points="10 480 169 480 159.0 490.0 169 500 10 500 0.0 490.0 10 480" fill="purple"/><polygon stroke="red" stroke-width="0" points="174 480 418 480 418 500 174 500 164.0 490.0 174 480" fill="purple"/><polygon stroke="red" stroke-width="0" points="423 480 547 480 557.0 490.0 547 500 423 500 423 480" fill="purple"/><polygon stroke="red" stroke-width="0" points="552 480 645 480 655.0 490.0 645 500 552 500 562.0 490.0 552 480" fill="purple"/><polygon stroke="red" stroke-width="0" points="650 480 682 480 682 500 650 500 660.0 490.0 650 480" fill="purple"/><polygon stroke="red" stroke-width="0" points="687 480 699 480 699 500 687 500 687 480" fill="purple"/></svg>
