<svg xmlns="http://www.w3.org/2000/svg" width="1035.0" height="520"><polygon points="20.0 40 20.0 20 46.0 20 51.0 30.0 46.0 40" fill="purple"/><text class="exonnr" x="35.5" y="30.0">1</text><polygon points="56.0 40 61.0 30.0 56.0 20 118.0 20 118.0 40" fill="purple"/><text class="exonnr" x="87.0" y="30.0">2</text><polygon points="123.0 40 123.0 20 216.0 20 216.0 40" fill="purple"/><text class="exonnr" x="169.5" y="30.0">3</text><polygon points="221.0 40 221.0 20 299.0 20 299.0 40" fill="purple"/><text class="exonnr" x="260.0" y="30.0">4</text><polygon points="304.0 40 304.0 20 397.0 20 397.0 40" fill="purple"/><text class="exonnr" x="350.5" y="30.0">5</text><polygon points="402.0 40 402.0 20 570.0 20 575.0 20 570.0 30.0 575.0 40 570.0 40" fill="purple"/><text class="exonnr" x="488.5" y="30.0">6</text><polygon points="585.0 40 580.0 30.0 585.0 20 694.0 20 699.0 30.0 694.0 40" fill="purple"/><text class="exonnr" x="639.5" y="30.0">7</text><polygon points="704.0 40 709.0 30.0 704.0 20 886.0 20 886.0 40" fill="purple"/><text class="exonnr" x="795.0" y="30.0">8</text><polygon points="20.0 80 20.0 60 149.0 60 149.0 80" fill="purple"/><text class="exonnr" x="84.5" y="70.0">9</text><polygon points="154.0 80 154.0 60 343.0 60 343.0 80" fill="purple"/><text class="exonnr" x="248.5" y="70.0">10</text><polygon points="348.0 80 348.0 60 525.0 60 530.0 60 525.0 70.0 530.0 80 525.0 80" fill="purple"/><text class="exonnr" x="439.0" y="70.0">11</text><polygon points="540.0 80 535.0 70.0 540.0 60 686.0 60 686.0 80" fill="purple"/><text class="exonnr" x="610.5" y="70.0">12</text><polygon points="691.0 80 691.0 60 811.0 60 811.0 80" fill="purple"/><text class="exonnr" x="751.0" y="70.0">13</text><polygon points="816.0 80 816.0 60 918.0 60 918.0 80" fill="purple"/><text class="exonnr" x="867.0" y="70.0">14</text><polygon points="20.0 120 20.0 100 128.0 100 128.0 120" fill="purple"/><text class="exonnr" x="74.0" y="110.0">15</text><polygon points="133.0 120 133.0 100 313.0 100 313.0 120" fill="purple"/><text class="exonnr" x="223.0" y="110.0">16</text><polygon points="318.0 120 318.0 100 489.0 100 494.0 100 489.0 110.0 494.0 120 489.0 120" fill="purple"/><text class="exonnr" x="406.0" y="110.0">17</text><polygon points="504.0 120 499.0 110.0 504.0 100 623.0 100 623.0 120" fill="purple"/><text class="exonnr" x="561.0" y="110.0">18</text><polygon points="628.0 120 628.0 100 711.0 100 716.0 110.0 711.0 120" fill="purple"/><text class="exonnr" x="672.0" y="110.0">19</text><polygon points="721.0 120 726.0 110.0 721.0 100 963.0 100 963.0 120" fill="purple"/><text class="exonnr" x="842.0" y="110.0">20</text><polygon points="20.0 160 20.0 140 196.0 140 201.0 150.0 196.0 160" fill="purple"/><text class="exonnr" x="110.5" y="150.0">21</text><polygon points="206.0 160 211.0 150.0 206.0 140 352.0 140 352.0 160" fill="purple"/><text class="exonnr" x="279.0" y="150.0">22</text><polygon points="357.0 160 357.0 140 570.0 140 570.0 160" fill="purple"/><text class="exonnr" x="463.5" y="150.0">23</text><polygon points="575.0 160 575.0 140 689.0 140 689.0 160" fill="purple"/><text class="exonnr" x="632.0" y="150.0">24</text><polygon points="694.0 160 694.0 140 850.0 140 850.0 160" fill="purple"/><text class="exonnr" x="772.0" y="150.0">25</text><polygon points="855.0 160 855.0 140 1026.0 140 1026.0 160" fill="purple"/><text class="exonnr" x="940.5" y="150.0">26</text><polygon points="20.0 200 20.0 180 203.0 180 203.0 200" fill="purple"/><text class="exonnr" x="111.5" y="190.0">27</text><polygon points="208.0 200 208.0 180 343.0 180 343.0 200" fill="purple"/><text class="exonnr" x="275.5" y="190.0">28</text><polygon points="348.0 200 348.0 180 498.0 180 498.0 200" fill="purple"/><text class="exonnr" x="423.0" y="190.0">29</text><polygon points="503.0 200 503.0 180 665.0 180 665.0 200" fill="purple"/><text class="exonnr" x="584.0" y="190.0">30</text><polygon points="670.0 200 670.0 180 781.0 180 781.0 200" fill="purple"/><text class="exonnr" x="725.5" y="190.0">31</text><polygon points="786.0 200 786.0 180 960.0 180 960.0 200" fill="purple"/><text class="exonnr" x="873.0" y="190.0">32</text><polygon points="20.0 240 20.0 220 176.0 220 176.0 240" fill="purple"/><text class="exonnr" x="98.0" y="230.0">33</text><polygon points="181.0 240 181.0 220 352.0 220 352.0 240" fill="purple"/><text class="exonnr" x="266.5" y="230.0">34</text><polygon points="357.0 240 357.0 220 537.0 220 537.0 240" fill="purple"/><text class="exonnr" x="447.0" y="230.0">35</text><polygon points="542.0 240 542.0 220 671.0 220 671.0 240" fill="purple"/><text class="exonnr" x="606.5" y="230.0">36</text><polygon points="676.0 240 676.0 220 847.0 220 847.0 240" fill="purple"/><text class="exonnr" x="761.5" y="230.0">37</text><polygon points="852.0 240 852.0 220 975.0 220 975.0 240" fill="purple"/><text class="exonnr" x="913.5" y="230.0">38</text><polygon points="20.0 280 20.0 260 158.0 260 158.0 280" fill="purple"/><text class="exonnr" x="89.0" y="270.0">39</text><polygon points="163.0 280 163.0 260 316.0 260 316.0 280" fill="purple"/><text class="exonnr" x="239.5" y="270.0">40</text><polygon points="321.0 280 321.0 260 504.0 260 504.0 280" fill="purple"/><text class="exonnr" x="412.5" y="270.0">41</text><polygon points="509.0 280 509.0 260 704.0 260 704.0 280" fill="purple"/><text class="exonnr" x="606.5" y="270.0">42</text><polygon points="709.0 280 709.0 260 877.0 260 882.0 260 877.0 270.0 882.0 280 877.0 280" fill="purple"/><text class="exonnr" x="795.5" y="270.0">43</text><polygon points="892.0 280 887.0 270.0 892.0 260 1035.0 260 1035.0 280" fill="purple"/><text class="exonnr" x="961.0" y="270.0">44</text><polygon points="20.0 320 20.0 300 191.0 300 196.0 300 191.0 310.0 196.0 320 191.0 320" fill="purple"/><text class="exonnr" x="108.0" y="310.0">45</text><polygon points="206.0 320 201.0 310.0 206.0 300 349.0 300 349.0 320" fill="purple"/><text class="exonnr" x="275.0" y="310.0">46</text><polygon points="354.0 320 354.0 300 504.0 300 504.0 320" fill="purple"/><text class="exonnr" x="429.0" y="310.0">47</text><polygon points="509.0 320 509.0 300 695.0 300 695.0 320" fill="purple"/><text class="exonnr" x="602.0" y="310.0">48</text><polygon points="700.0 320 700.0 300 802.0 300 802.0 320" fill="purple"/><text class="exonnr" x="751.0" y="310.0">49</text><polygon points="807.0 320 807.0 300 911.0 300 916.0 310.0 911.0 320" fill="purple"/><text class="exonnr" x="861.5" y="310.0">50</text><polygon points="20.0 360 25.0 350.0 20.0 340 253.0 340 253.0 360" fill="purple"/><text class="exonnr" x="136.5" y="350.0">51</text><polygon points="258.0 360 258.0 340 371.0 340 376.0 350.0 371.0 360" fill="purple"/><text class="exonnr" x="317.0" y="350.0">52</text><polygon points="381.0 360 386.0 350.0 381.0 340 593.0 340 593.0 360" fill="purple"/><text class="exonnr" x="487.0" y="350.0">53</text><polygon points="598.0 360 598.0 340 748.0 340 753.0 340 748.0 350.0 753.0 360 748.0 360" fill="purple"/><text class="exonnr" x="675.5" y="350.0">54</text><polygon points="763.0 360 758.0 350.0 763.0 340 948.0 340 948.0 360" fill="purple"/><text class="exonnr" x="853.0" y="350.0">55</text><polygon points="20.0 400 20.0 380 188.0 380 193.0 380 188.0 390.0 193.0 400 188.0 400" fill="purple"/><text class="exonnr" x="106.5" y="390.0">56</text><polygon points="203.0 400 198.0 390.0 203.0 380 355.0 380 355.0 400" fill="purple"/><text class="exonnr" x="276.5" y="390.0">57</text><polygon points="360.0 400 360.0 380 476.0 380 481.0 390.0 476.0 400" fill="purple"/><text class="exonnr" x="420.5" y="390.0">58</text><polygon points="486.0 400 491.0 390.0 486.0 380 755.0 380 755.0 400" fill="purple"/><text class="exonnr" x="620.5" y="390.0">59</text><polygon points="760.0 400 760.0 380 907.0 380 907.0 400" fill="purple"/><text class="exonnr" x="833.5" y="390.0">60</text><polygon points="20.0 440 20.0 420 94.0 420 99.0 430.0 94.0 440" fill="purple"/><text class="exonnr" x="59.5" y="430.0">61</text><polygon points="104.0 440 109.0 430.0 104.0 420 160.0 420 165.0 420 160.0 430.0 165.0 440 160.0 440" fill="purple"/><text class="exonnr" x="134.5" y="430.0">62</text><polygon points="175.0 440 170.0 430.0 175.0 420 227.0 420 232.0 430.0 227.0 440" fill="purple"/><text class="exonnr" x="201.0" y="430.0">63</text><polygon points="237.0 440 242.0 430.0 237.0 420 307.0 420 312.0 430.0 307.0 440" fill="purple"/><text class="exonnr" x="274.5" y="430.0">64</text><polygon points="317.0 440 322.0 430.0 317.0 420 514.0 420 519.0 420 514.0 430.0 519.0 440 514.0 440" fill="purple"/><text class="exonnr" x="418.0" y="430.0">65</text><polygon points="529.0 440 524.0 430.0 529.0 420 605.0 420 610.0 430.0 605.0 440" fill="purple"/><text class="exonnr" x="567.0" y="430.0">66</text><polygon points="615.0 440 620.0 430.0 615.0 420 773.0 420 773.0 440" fill="purple"/><text class="exonnr" x="694.0" y="430.0">67</text><polygon points="778.0 440 778.0 420 940.0 420 945.0 420 940.0 430.0 945.0 440 940.0 440" fill="purple"/><text class="exonnr" x="861.5" y="430.0">68</text><polygon points="25.0 480 20.0 470.0 25.0 460 132.0 460 132.0 480" fill="purple"/><text class="exonnr" x="76.0" y="470.0">69</text><polygon points="137.0 480 137.0 460 269.0 460 274.0 460 269.0 470.0 274.0 480 269.0 480" fill="purple"/><text class="exonnr" x="205.5" y="470.0">70</text><polygon points="284.0 480 279.0 470.0 284.0 460 313.0 460 318.0 460 313.0 470.0 318.0 480 313.0 480" fill="purple"/><text class="exonnr" x="298.5" y="470.0">71</text><polygon points="328.0 480 323.0 470.0 328.0 460 384.0 460 389.0 460 384.0 470.0 389.0 480 384.0 480" fill="purple"/><text class="exonnr" x="356.0" y="470.0">72</text><polygon points="399.0 480 394.0 470.0 399.0 460 455.0 460 460.0 460 455.0 470.0 460.0 480 455.0 480" fill="purple"/><text class="exonnr" x="427.0" y="470.0">73</text><polygon points="470.0 480 465.0 470.0 470.0 460 619.0 460 624.0 460 619.0 470.0 624.0 480 619.0 480" fill="purple"/><text class="exonnr" x="544.5" y="470.0">74</text><polygon points="634.0 480 629.0 470.0 634.0 460 873.0 460 873.0 480" fill="purple"/><text class="exonnr" x="751.0" y="470.0">75</text><polygon points="878.0 480 878.0 460 997.0 460 1002.0 470.0 997.0 480" fill="purple"/><text class="exonnr" x="940.0" y="470.0">76</text><polygon points="20.0 520 25.0 510.0 20.0 500 108.0 500 113.0 510.0 108.0 520" fill="purple"/><text class="exonnr" x="66.5" y="510.0">77</text><polygon points="118.0 520 123.0 510.0 118.0 500 150.0 500 150.0 520" fill="purple"/><text class="exonnr" x="134.0" y="510.0">78</text><polygon points="155.0 520 155.0 500 167.0 500 167.0 520" fill="purple"/><text class="exonnr" x="161.0" y="510.0">79</text><style >
.legend { font: 16.0px sans-serif; fill: black; dominant-baseline: central; }
</style><style >
.exonnr { text-anchor: middle; dominant-baseline: central; font: 10.0px sans-serif; fill: white;}
</style></svg>
