<svg xmlns="http://www.w3.org/2000/svg" width="3693" height="525"><polygon stroke="red" stroke-width="0" points="343 18.75 343 56.25 10 56.25 10 18.75 343 18.75" fill="#4C72B7"/><polygon stroke="red" stroke-width="0" points="343 0 403 0 403 75 343 75 343 0" fill="#4C72B7"/><polygon stroke="red" stroke-width="0" points="423 0 567 0 567 75 423 75 423 0" fill="#4C72B7"/><polygon stroke="red" stroke-width="0" points="587 0 671 0 671 75 587 75 587 0" fill="#4C72B7"/><polygon stroke="red" stroke-width="0" points="691 0 882 0 844.5 37.5 882 75 691 75 691 0" fill="#4C72B7"/><polygon stroke="red" stroke-width="0" points="902 0 1009 0 1046.5 37.5 1009 75 902 75 864.5 37.5 902 0" fill="#4C72B7"/><polygon stroke="red" stroke-width="0" points="1029 0 1097 0 1097 75 1029 75 1066.5 37.5 1029 0" fill="#4C72B7"/><polygon stroke="red" stroke-width="0" points="1117 0 1193 0 1230.5 37.5 1193 75 1117 75 1117 0" fill="#4C72B7"/><polygon stroke="red" stroke-width="0" points="1213 0 1371 0 1371 75 1213 75 1250.5 37.5 1213 0" fill="#4C72B7"/><polygon stroke="red" stroke-width="0" points="1391 0 1565 0 1565 75 1391 75 1391 0" fill="#4C72B7"/><polygon stroke="red" stroke-width="0" points="1585 0 1708 0 1708 75 1585 75 1585 0" fill="#4C72B7"/><polygon stroke="red" stroke-width="0" points="1728 0 1803 0 1803 75 1728 75 1728 0" fill="#4C72B7"/><polygon stroke="red" stroke-width="0" points="1823 0 1955 0 1955 75 1823 75 1823 0" fill="#4C72B7"/><polygon stroke="red" stroke-width="0" points="1975 0 2110 0 2110 75 1975 75 1975 0" fill="#4C72B7"/><polygon stroke="red" stroke-width="0" points="2130 0 2244 0 2244 75 2130 75 2130 0" fill="#4C72B7"/><polygon stroke="red" stroke-width="0" points="2264 0 2344 0 2306.5 37.5 2344 75 2264 75 2264 0" fill="#4C72B7"/><polygon stroke="red" stroke-width="0" points="2364 0 2488 0 2488 75 2364 75 2326.5 37.5 2364 0" fill="#4C72B7"/><polygon stroke="red" stroke-width="0" points="2508 0 2664 0 2664 75 2508 75 2508 0" fill="#4C72B7"/><polygon stroke="red" stroke-width="0" points="2684 0 2934 0 2971.5 37.5 2934 75 2684 75 2684 0" fill="#4C72B7"/><polygon stroke="red" stroke-width="0" points="2954 0 3028 0 3028 75 2954 75 2991.5 37.5 2954 0" fill="#4C72B7"/><polygon stroke="red" stroke-width="0" points="3048 0 3132 0 3132 75 3048 75 3048 0" fill="#4C72B7"/><polygon stroke="red" stroke-width="0" points="10 150 451 150 451 225 10 225 10 150" fill="#4C72B7"/><polygon stroke="red" stroke-width="0" points="471 150 611 150 573.5 187.5 611 225 471 225 471 150" fill="#4C72B7"/><polygon stroke="red" stroke-width="0" points="631 150 754 150 716.5 187.5 754 225 631 225 593.5 187.5 631 150" fill="#4C72B7"/><polygon stroke="red" stroke-width="0" points="774 150 858 150 820.5 187.5 858 225 774 225 736.5 187.5 774 150" fill="#4C72B7"/><polygon stroke="red" stroke-width="0" points="878 150 995 150 957.5 187.5 995 225 878 225 840.5 187.5 878 150" fill="#4C72B7"/><polygon stroke="red" stroke-width="0" points="1015 150 1197 150 1234.5 187.5 1197 225 1015 225 977.5 187.5 1015 150" fill="#4C72B7"/><polygon stroke="red" stroke-width="0" points="1217 150 1429 150 1429 225 1217 225 1254.5 187.5 1217 150" fill="#4C72B7"/><polygon stroke="red" stroke-width="0" points="1449 150 1611 150 1611 225 1449 225 1449 150" fill="#4C72B7"/><polygon stroke="red" stroke-width="0" points="1631 150 1735 150 1697.5 187.5 1735 225 1631 225 1631 150" fill="#4C72B7"/><polygon stroke="red" stroke-width="0" points="1755 150 1891 150 1891 225 1755 225 1717.5 187.5 1755 150" fill="#4C72B7"/><polygon stroke="red" stroke-width="0" points="1911 150 1974 150 1974 225 1911 225 1911 150" fill="#4C72B7"/><polygon stroke="red" stroke-width="0" points="1994 150 2153 150 2153 225 1994 225 1994 150" fill="#4C72B7"/><polygon stroke="red" stroke-width="0" points="2173 150 2271 150 2233.5 187.5 2271 225 2173 225 2173 150" fill="#4C72B7"/><polygon stroke="red" stroke-width="0" points="2291 150 2438 150 2400.5 187.5 2438 225 2291 225 2253.5 187.5 2291 150" fill="#4C72B7"/><polygon stroke="red" stroke-width="0" points="2458 150 2605 150 2567.5 187.5 2605 225 2458 225 2420.5 187.5 2458 150" fill="#4C72B7"/><polygon stroke="red" stroke-width="0" points="2625 150 2736 150 2698.5 187.5 2736 225 2625 225 2587.5 187.5 2625 150" fill="#4C72B7"/><polygon stroke="red" stroke-width="0" points="2756 150 3189 150 3189 225 2756 225 2718.5 187.5 2756 150" fill="#4C72B7"/><polygon stroke="red" stroke-width="0" points="10 300 351 300 313.5 337.5 351 375 10 375 10 300" fill="#4C72B7"/><polygon stroke="red" stroke-width="0" points="371 300 574 300 611.5 337.5 574 375 371 375 333.5 337.5 371 300" fill="#4C72B7"/><polygon stroke="red" stroke-width="0" points="594 300 788 300 788 375 594 375 631.5 337.5 594 300" fill="#4C72B7"/><polygon stroke="red" stroke-width="0" points="808 300 949 300 949 375 808 375 808 300" fill="#4C72B7"/><polygon stroke="red" stroke-width="0" points="969 300 1249 300 1286.5 337.5 1249 375 969 375 969 300" fill="#4C72B7"/><polygon stroke="red" stroke-width="0" points="1269 300 1484 300 1484 375 1269 375 1306.5 337.5 1269 300" fill="#4C72B7"/><polygon stroke="red" stroke-width="0" points="1504 300 1566 300 1528.5 337.5 1566 375 1504 375 1504 300" fill="#4C72B7"/><polygon stroke="red" stroke-width="0" points="1586 300 1701 300 1701 375 1586 375 1548.5 337.5 1586 300" fill="#4C72B7"/><polygon stroke="red" stroke-width="0" points="1721 300 1823 300 1823 375 1721 375 1721 300" fill="#4C72B7"/><polygon stroke="red" stroke-width="0" points="1843 300 1984 300 1984 375 1843 375 1843 300" fill="#4C72B7"/><polygon stroke="red" stroke-width="0" points="2004 300 2131 300 2168.5 337.5 2131 375 2004 375 2004 300" fill="#4C72B7"/><polygon stroke="red" stroke-width="0" points="2151 300 2283 300 2320.5 337.5 2283 375 2151 375 2188.5 337.5 2151 300" fill="#4C72B7"/><polygon stroke="red" stroke-width="0" points="2303 300 2439 300 2401.5 337.5 2439 375 2303 375 2340.5 337.5 2303 300" fill="#4C72B7"/><polygon stroke="red" stroke-width="0" points="2459 300 2617 300 2654.5 337.5 2617 375 2459 375 2421.5 337.5 2459 300" fill="#4C72B7"/><polygon stroke="red" stroke-width="0" points="2637 300 2760 300 2797.5 337.5 2760 375 2637 375 2674.5 337.5 2637 300" fill="#4C72B7"/><polygon stroke="red" stroke-width="0" points="2780 300 2911 300 2911 375 2780 375 2817.5 337.5 2780 300" fill="#4C72B7"/><polygon stroke="red" stroke-width="0" points="2931 300 3032 300 2994.5 337.5 3032 375 2931 375 2931 300" fill="#4C72B7"/><polygon stroke="red" stroke-width="0" points="3052 300 3195 300 3232.5 337.5 3195 375 3052 375 3014.5 337.5 3052 300" fill="#4C72B7"/><polygon stroke="red" stroke-width="0" points="3215 300 3262 300 3262 375 3215 375 3252.5 337.5 3215 300" fill="#4C72B7"/><polygon stroke="red" stroke-width="0" points="3282 300 3499 300 3536.5 337.5 3499 375 3282 375 3282 300" fill="#4C72B7"/><polygon stroke="red" stroke-width="0" points="3673 468.75 3673 506.25 153 506.25 153 468.75 3673 468.75" fill="#4C72B7"/><polygon stroke="red" stroke-width="0" points="10 450 153 450 153 525 10 525 47.5 487.5 10 450" fill="#4C72B7"/></svg>
