<svg xmlns="http://www.w3.org/2000/svg" width="3675.0" height="731.25"><rect x="75" y="93.75" width="334.0" height="37.5" fill="#4C72B7"/><polygon points="408.0 150 408.0 75 468.0 75 468.0 150" fill="#4C72B7"/><polygon points="488.0 150 488.0 75 632.0 75 632.0 150" fill="#4C72B7"/><polygon points="652.0 150 652.0 75 736.0 75 736.0 150" fill="#4C72B7"/><polygon points="756.0 150 756.0 75 928.25 75 947.0 75 928.25 112.5 947.0 150 928.25 150" fill="#4C72B7"/><polygon points="985.75 150 967.0 112.5 985.75 75 1055.25 75 1074.0 112.5 1055.25 150" fill="#4C72B7"/><polygon points="1094.0 150 1112.75 112.5 1094.0 75 1162.0 75 1162.0 150" fill="#4C72B7"/><polygon points="1182.0 150 1182.0 75 1239.25 75 1258.0 112.5 1239.25 150" fill="#4C72B7"/><polygon points="1278.0 150 1296.75 112.5 1278.0 75 1436.0 75 1436.0 150" fill="#4C72B7"/><polygon points="1456.0 150 1456.0 75 1630.0 75 1630.0 150" fill="#4C72B7"/><polygon points="1650.0 150 1650.0 75 1773.0 75 1773.0 150" fill="#4C72B7"/><polygon points="1793.0 150 1793.0 75 1868.0 75 1868.0 150" fill="#4C72B7"/><polygon points="1888.0 150 1888.0 75 2020.0 75 2020.0 150" fill="#4C72B7"/><polygon points="2040.0 150 2040.0 75 2175.0 75 2175.0 150" fill="#4C72B7"/><polygon points="2195.0 150 2195.0 75 2309.0 75 2309.0 150" fill="#4C72B7"/><polygon points="2329.0 150 2329.0 75 2390.25 75 2409.0 75 2390.25 112.5 2409.0 150 2390.25 150" fill="#4C72B7"/><polygon points="2447.75 150 2429.0 112.5 2447.75 75 2553.0 75 2553.0 150" fill="#4C72B7"/><polygon points="2573.0 150 2573.0 75 2729.0 75 2729.0 150" fill="#4C72B7"/><polygon points="2749.0 150 2749.0 75 2980.25 75 2999.0 112.5 2980.25 150" fill="#4C72B7"/><polygon points="3019.0 150 3037.75 112.5 3019.0 75 3093.0 75 3093.0 150" fill="#4C72B7"/><polygon points="3113.0 150 3113.0 75 3197.0 75 3197.0 150" fill="#4C72B7"/><polygon points="75.0 300 75.0 225 516.0 225 516.0 300" fill="#4C72B7"/><polygon points="536.0 300 536.0 225 657.25 225 676.0 225 657.25 262.5 676.0 300 657.25 300" fill="#4C72B7"/><polygon points="714.75 300 696.0 262.5 714.75 225 800.25 225 819.0 225 800.25 262.5 819.0 300 800.25 300" fill="#4C72B7"/><polygon points="857.75 300 839.0 262.5 857.75 225 904.25 225 923.0 225 904.25 262.5 923.0 300 904.25 300" fill="#4C72B7"/><polygon points="961.75 300 943.0 262.5 961.75 225 1041.25 225 1060.0 225 1041.25 262.5 1060.0 300 1041.25 300" fill="#4C72B7"/><polygon points="1098.75 300 1080.0 262.5 1098.75 225 1243.25 225 1262.0 262.5 1243.25 300" fill="#4C72B7"/><polygon points="1282.0 300 1300.75 262.5 1282.0 225 1494.0 225 1494.0 300" fill="#4C72B7"/><polygon points="1514.0 300 1514.0 225 1676.0 225 1676.0 300" fill="#4C72B7"/><polygon points="1696.0 300 1696.0 225 1781.25 225 1800.0 225 1781.25 262.5 1800.0 300 1781.25 300" fill="#4C72B7"/><polygon points="1838.75 300 1820.0 262.5 1838.75 225 1956.0 225 1956.0 300" fill="#4C72B7"/><polygon points="1976.0 300 1976.0 225 2039.0 225 2039.0 300" fill="#4C72B7"/><polygon points="2059.0 300 2059.0 225 2218.0 225 2218.0 300" fill="#4C72B7"/><polygon points="2238.0 300 2238.0 225 2317.25 225 2336.0 225 2317.25 262.5 2336.0 300 2317.25 300" fill="#4C72B7"/><polygon points="2374.75 300 2356.0 262.5 2374.75 225 2484.25 225 2503.0 225 2484.25 262.5 2503.0 300 2484.25 300" fill="#4C72B7"/><polygon points="2541.75 300 2523.0 262.5 2541.75 225 2651.25 225 2670.0 225 2651.25 262.5 2670.0 300 2651.25 300" fill="#4C72B7"/><polygon points="2708.75 300 2690.0 262.5 2708.75 225 2782.25 225 2801.0 225 2782.25 262.5 2801.0 300 2782.25 300" fill="#4C72B7"/><polygon points="2839.75 300 2821.0 262.5 2839.75 225 3254.0 225 3254.0 300" fill="#4C72B7"/><polygon points="75.0 450 75.0 375 397.25 375 416.0 375 397.25 412.5 416.0 450 397.25 450" fill="#4C72B7"/><polygon points="454.75 450 436.0 412.5 454.75 375 620.25 375 639.0 412.5 620.25 450" fill="#4C72B7"/><polygon points="659.0 450 677.75 412.5 659.0 375 853.0 375 853.0 450" fill="#4C72B7"/><polygon points="873.0 450 873.0 375 1014.0 375 1014.0 450" fill="#4C72B7"/><polygon points="1034.0 450 1034.0 375 1295.25 375 1314.0 412.5 1295.25 450" fill="#4C72B7"/><polygon points="1334.0 450 1352.75 412.5 1334.0 375 1549.0 375 1549.0 450" fill="#4C72B7"/><polygon points="1569.0 450 1569.0 375 1612.25 375 1631.0 375 1612.25 412.5 1631.0 450 1612.25 450" fill="#4C72B7"/><polygon points="1669.75 450 1651.0 412.5 1669.75 375 1766.0 375 1766.0 450" fill="#4C72B7"/><polygon points="1786.0 450 1786.0 375 1888.0 375 1888.0 450" fill="#4C72B7"/><polygon points="1908.0 450 1908.0 375 2049.0 375 2049.0 450" fill="#4C72B7"/><polygon points="2069.0 450 2069.0 375 2177.25 375 2196.0 412.5 2177.25 450" fill="#4C72B7"/><polygon points="2216.0 450 2234.75 412.5 2216.0 375 2329.25 375 2348.0 412.5 2329.25 450" fill="#4C72B7"/><polygon points="2368.0 450 2386.75 412.5 2368.0 375 2485.25 375 2504.0 375 2485.25 412.5 2504.0 450 2485.25 450" fill="#4C72B7"/><polygon points="2542.75 450 2524.0 412.5 2542.75 375 2663.25 375 2682.0 412.5 2663.25 450" fill="#4C72B7"/><polygon points="2702.0 450 2720.75 412.5 2702.0 375 2806.25 375 2825.0 412.5 2806.25 450" fill="#4C72B7"/><polygon points="2845.0 450 2863.75 412.5 2845.0 375 2976.0 375 2976.0 450" fill="#4C72B7"/><polygon points="2996.0 450 2996.0 375 3078.25 375 3097.0 375 3078.25 412.5 3097.0 450 3078.25 450" fill="#4C72B7"/><polygon points="3135.75 450 3117.0 412.5 3135.75 375 3241.25 375 3260.0 412.5 3241.25 450" fill="#4C72B7"/><polygon points="75.0 600 93.75 562.5 75.0 525 122.0 525 122.0 600" fill="#4C72B7"/><polygon points="142.0 600 142.0 525 340.25 525 359.0 562.5 340.25 600" fill="#4C72B7"/><rect x="521.0" y="543.75" width="3154.0" height="37.5" fill="#4C72B7"/><polygon points="379.0 600 397.75 562.5 379.0 525 522.0 525 522.0 600" fill="#4C72B7"/><rect x="75" y="693.75" width="367.0" height="37.5" fill="#4C72B7"/><style >
.legend { font: 60.0px sans-serif; fill: black; dominant-baseline: central; }
</style><style >
.exonnr { text-anchor: middle; dominant-baseline: central; font: 37.5px sans-serif; fill: white;}
</style></svg>
