<svg xmlns="http://www.w3.org/2000/svg" width="3675" height="581.25"><rect x="75" y="93.75" width="334" height="37.5" fill="#4C72B7"/><polygon points="408 150 408 75 468 75 468 150" fill="#4C72B7"/><polygon points="488 150 488 75 632 75 632 150" fill="#4C72B7"/><polygon points="652 150 652 75 736 75 736 150" fill="#4C72B7"/><polygon points="756 150 756 75 928.25 75 947 75 928.25 112.5 947 150 928.25 150" fill="#4C72B7"/><polygon points="985.75 150 967 112.5 985.75 75 1055.25 75 1074 112.5 1055.25 150" fill="#4C72B7"/><polygon points="1094 150 1112.75 112.5 1094 75 1162 75 1162 150" fill="#4C72B7"/><polygon points="1182 150 1182 75 1239.25 75 1258 112.5 1239.25 150" fill="#4C72B7"/><polygon points="1278 150 1296.75 112.5 1278 75 1436 75 1436 150" fill="#4C72B7"/><polygon points="1456 150 1456 75 1630 75 1630 150" fill="#4C72B7"/><polygon points="1650 150 1650 75 1773 75 1773 150" fill="#4C72B7"/><polygon points="1793 150 1793 75 1868 75 1868 150" fill="#4C72B7"/><polygon points="1888 150 1888 75 2020 75 2020 150" fill="#4C72B7"/><polygon points="2040 150 2040 75 2175 75 2175 150" fill="#4C72B7"/><polygon points="2195 150 2195 75 2309 75 2309 150" fill="#4C72B7"/><polygon points="2329 150 2329 75 2390.25 75 2409 75 2390.25 112.5 2409 150 2390.25 150" fill="#4C72B7"/><polygon points="2447.75 150 2429 112.5 2447.75 75 2553 75 2553 150" fill="#4C72B7"/><polygon points="2573 150 2573 75 2729 75 2729 150" fill="#4C72B7"/><polygon points="2749 150 2749 75 2980.25 75 2999 112.5 2980.25 150" fill="#4C72B7"/><polygon points="3019 150 3037.75 112.5 3019 75 3093 75 3093 150" fill="#4C72B7"/><polygon points="3113 150 3113 75 3197 75 3197 150" fill="#4C72B7"/><polygon points="3217 150 3217 75 3658 75 3658 150" fill="#4C72B7"/><polygon points="75 300 75 225 196.25 225 215 225 196.25 262.5 215 300 196.25 300" fill="#4C72B7"/><polygon points="253.75 300 235 262.5 253.75 225 339.25 225 358 225 339.25 262.5 358 300 339.25 300" fill="#4C72B7"/><polygon points="396.75 300 378 262.5 396.75 225 443.25 225 462 225 443.25 262.5 462 300 443.25 300" fill="#4C72B7"/><polygon points="500.75 300 482 262.5 500.75 225 580.25 225 599 225 580.25 262.5 599 300 580.25 300" fill="#4C72B7"/><polygon points="637.75 300 619 262.5 637.75 225 782.25 225 801 262.5 782.25 300" fill="#4C72B7"/><polygon points="821 300 839.75 262.5 821 225 1033 225 1033 300" fill="#4C72B7"/><polygon points="1053 300 1053 225 1215 225 1215 300" fill="#4C72B7"/><polygon points="1235 300 1235 225 1320.25 225 1339 225 1320.25 262.5 1339 300 1320.25 300" fill="#4C72B7"/><polygon points="1377.75 300 1359 262.5 1377.75 225 1495 225 1495 300" fill="#4C72B7"/><polygon points="1515 300 1515 225 1578 225 1578 300" fill="#4C72B7"/><polygon points="1598 300 1598 225 1757 225 1757 300" fill="#4C72B7"/><polygon points="1777 300 1777 225 1856.25 225 1875 225 1856.25 262.5 1875 300 1856.25 300" fill="#4C72B7"/><polygon points="1913.75 300 1895 262.5 1913.75 225 2023.25 225 2042 225 2023.25 262.5 2042 300 2023.25 300" fill="#4C72B7"/><polygon points="2080.75 300 2062 262.5 2080.75 225 2190.25 225 2209 225 2190.25 262.5 2209 300 2190.25 300" fill="#4C72B7"/><polygon points="2247.75 300 2229 262.5 2247.75 225 2321.25 225 2340 225 2321.25 262.5 2340 300 2321.25 300" fill="#4C72B7"/><polygon points="2378.75 300 2360 262.5 2378.75 225 2793 225 2793 300" fill="#4C72B7"/><polygon points="2813 300 2813 225 3135.25 225 3154 225 3135.25 262.5 3154 300 3135.25 300" fill="#4C72B7"/><polygon points="3192.75 300 3174 262.5 3192.75 225 3358.25 225 3377 262.5 3358.25 300" fill="#4C72B7"/><polygon points="3397 300 3415.75 262.5 3397 225 3591 225 3591 300" fill="#4C72B7"/><polygon points="75 450 75 375 216 375 216 450" fill="#4C72B7"/><polygon points="236 450 236 375 497.25 375 516 412.5 497.25 450" fill="#4C72B7"/><polygon points="536 450 554.75 412.5 536 375 751 375 751 450" fill="#4C72B7"/><polygon points="771 450 771 375 814.25 375 833 375 814.25 412.5 833 450 814.25 450" fill="#4C72B7"/><polygon points="871.75 450 853 412.5 871.75 375 968 375 968 450" fill="#4C72B7"/><polygon points="988 450 988 375 1090 375 1090 450" fill="#4C72B7"/><polygon points="1110 450 1110 375 1251 375 1251 450" fill="#4C72B7"/><polygon points="1271 450 1271 375 1379.25 375 1398 412.5 1379.25 450" fill="#4C72B7"/><polygon points="1418 450 1436.75 412.5 1418 375 1531.25 375 1550 412.5 1531.25 450" fill="#4C72B7"/><polygon points="1570 450 1588.75 412.5 1570 375 1687.25 375 1706 375 1687.25 412.5 1706 450 1687.25 450" fill="#4C72B7"/><polygon points="1744.75 450 1726 412.5 1744.75 375 1865.25 375 1884 412.5 1865.25 450" fill="#4C72B7"/><polygon points="1904 450 1922.75 412.5 1904 375 2008.25 375 2027 412.5 2008.25 450" fill="#4C72B7"/><polygon points="2047 450 2065.75 412.5 2047 375 2178 375 2178 450" fill="#4C72B7"/><polygon points="2198 450 2198 375 2280.25 375 2299 375 2280.25 412.5 2299 450 2280.25 450" fill="#4C72B7"/><polygon points="2337.75 450 2319 412.5 2337.75 375 2443.25 375 2462 412.5 2443.25 450" fill="#4C72B7"/><polygon points="2482 450 2500.75 412.5 2482 375 2529 375 2529 450" fill="#4C72B7"/><polygon points="2549 450 2549 375 2747.25 375 2766 412.5 2747.25 450" fill="#4C72B7"/><rect x="2928" y="393.75" width="747" height="37.5" fill="#4C72B7"/><polygon points="2786 450 2804.75 412.5 2786 375 2929 375 2929 450" fill="#4C72B7"/><rect x="75" y="543.75" width="2774" height="37.5" fill="#4C72B7"/><style >
.legend { font: 60.0px sans-serif; fill: black; dominant-baseline: central; }
</style><style >
.exonnr { text-anchor: middle; dominant-baseline: central; font: 37.5px sans-serif; fill: white;}
</style></svg>
