<svg xmlns="http://www.w3.org/2000/svg" width="3675" height="731.25"><rect x="75" y="93.75" width="334" height="37.5" fill="#4C72B7"/><polygon points="408 150 408 75 468 75 468 150" fill="#4C72B7"/><polygon points="488 150 488 75 632 75 632 150" fill="#4C72B7"/><polygon points="652 150 652 75 736 75 736 150" fill="#4C72B7"/><polygon points="756 150 756 75 928.25 75 947 75 928.25 112.5 947 150 928.25 150" fill="#4C72B7"/><polygon points="985.75 150 967 112.5 985.75 75 1055.25 75 1074 112.5 1055.25 150" fill="#4C72B7"/><polygon points="1094 150 1112.75 112.5 1094 75 1162 75 1162 150" fill="#4C72B7"/><polygon points="1182 150 1182 75 1239.25 75 1258 112.5 1239.25 150" fill="#4C72B7"/><polygon points="1278 150 1296.75 112.5 1278 75 1436 75 1436 150" fill="#4C72B7"/><polygon points="1456 150 1456 75 1630 75 1630 150" fill="#4C72B7"/><polygon points="1650 150 1650 75 1773 75 1773 150" fill="#4C72B7"/><polygon points="1793 150 1793 75 1868 75 1868 150" fill="#4C72B7"/><polygon points="1888 150 1888 75 2020 75 2020 150" fill="#4C72B7"/><polygon points="2040 150 2040 75 2175 75 2175 150" fill="#4C72B7"/><polygon points="2195 150 2195 75 2309 75 2309 150" fill="#4C72B7"/><polygon points="2329 150 2329 75 2390.25 75 2409 75 2390.25 112.5 2409 150 2390.25 150" fill="#4C72B7"/><polygon points="2447.75 150 2429 112.5 2447.75 75 2553 75 2553 150" fill="#4C72B7"/><polygon points="2573 150 2573 75 2729 75 2729 150" fill="#4C72B7"/><polygon points="2749 150 2749 75 2980.25 75 2999 112.5 2980.25 150" fill="#4C72B7"/><polygon points="3019 150 3037.75 112.5 3019 75 3093 75 3093 150" fill="#4C72B7"/><polygon points="3113 150 3113 75 3197 75 3197 150" fill="#4C72B7"/><polygon points="75 300 75 225 516 225 516 300" fill="#4C72B7"/><polygon points="536 300 536 225 657.25 225 676 225 657.25 262.5 676 300 657.25 300" fill="#4C72B7"/><polygon points="714.75 300 696 262.5 714.75 225 800.25 225 819 225 800.25 262.5 819 300 800.25 300" fill="#4C72B7"/><polygon points="857.75 300 839 262.5 857.75 225 904.25 225 923 225 904.25 262.5 923 300 904.25 300" fill="#4C72B7"/><polygon points="961.75 300 943 262.5 961.75 225 1041.25 225 1060 225 1041.25 262.5 1060 300 1041.25 300" fill="#4C72B7"/><polygon points="1098.75 300 1080 262.5 1098.75 225 1243.25 225 1262 262.5 1243.25 300" fill="#4C72B7"/><polygon points="1282 300 1300.75 262.5 1282 225 1494 225 1494 300" fill="#4C72B7"/><polygon points="1514 300 1514 225 1676 225 1676 300" fill="#4C72B7"/><polygon points="1696 300 1696 225 1781.25 225 1800 225 1781.25 262.5 1800 300 1781.25 300" fill="#4C72B7"/><polygon points="1838.75 300 1820 262.5 1838.75 225 1956 225 1956 300" fill="#4C72B7"/><polygon points="1976 300 1976 225 2039 225 2039 300" fill="#4C72B7"/><polygon points="2059 300 2059 225 2218 225 2218 300" fill="#4C72B7"/><polygon points="2238 300 2238 225 2317.25 225 2336 225 2317.25 262.5 2336 300 2317.25 300" fill="#4C72B7"/><polygon points="2374.75 300 2356 262.5 2374.75 225 2484.25 225 2503 225 2484.25 262.5 2503 300 2484.25 300" fill="#4C72B7"/><polygon points="2541.75 300 2523 262.5 2541.75 225 2651.25 225 2670 225 2651.25 262.5 2670 300 2651.25 300" fill="#4C72B7"/><polygon points="2708.75 300 2690 262.5 2708.75 225 2782.25 225 2801 225 2782.25 262.5 2801 300 2782.25 300" fill="#4C72B7"/><polygon points="2839.75 300 2821 262.5 2839.75 225 3254 225 3254 300" fill="#4C72B7"/><polygon points="75 450 75 375 397.25 375 416 375 397.25 412.5 416 450 397.25 450" fill="#4C72B7"/><polygon points="454.75 450 436 412.5 454.75 375 620.25 375 639 412.5 620.25 450" fill="#4C72B7"/><polygon points="659 450 677.75 412.5 659 375 853 375 853 450" fill="#4C72B7"/><polygon points="873 450 873 375 1014 375 1014 450" fill="#4C72B7"/><polygon points="1034 450 1034 375 1295.25 375 1314 412.5 1295.25 450" fill="#4C72B7"/><polygon points="1334 450 1352.75 412.5 1334 375 1549 375 1549 450" fill="#4C72B7"/><polygon points="1569 450 1569 375 1612.25 375 1631 375 1612.25 412.5 1631 450 1612.25 450" fill="#4C72B7"/><polygon points="1669.75 450 1651 412.5 1669.75 375 1766 375 1766 450" fill="#4C72B7"/><polygon points="1786 450 1786 375 1888 375 1888 450" fill="#4C72B7"/><polygon points="1908 450 1908 375 2049 375 2049 450" fill="#4C72B7"/><polygon points="2069 450 2069 375 2177.25 375 2196 412.5 2177.25 450" fill="#4C72B7"/><polygon points="2216 450 2234.75 412.5 2216 375 2329.25 375 2348 412.5 2329.25 450" fill="#4C72B7"/><polygon points="2368 450 2386.75 412.5 2368 375 2485.25 375 2504 375 2485.25 412.5 2504 450 2485.25 450" fill="#4C72B7"/><polygon points="2542.75 450 2524 412.5 2542.75 375 2663.25 375 2682 412.5 2663.25 450" fill="#4C72B7"/><polygon points="2702 450 2720.75 412.5 2702 375 2806.25 375 2825 412.5 2806.25 450" fill="#4C72B7"/><polygon points="2845 450 2863.75 412.5 2845 375 2976 375 2976 450" fill="#4C72B7"/><polygon points="2996 450 2996 375 3078.25 375 3097 375 3078.25 412.5 3097 450 3078.25 450" fill="#4C72B7"/><polygon points="3135.75 450 3117 412.5 3135.75 375 3241.25 375 3260 412.5 3241.25 450" fill="#4C72B7"/><polygon points="75 600 93.75 562.5 75 525 122 525 122 600" fill="#4C72B7"/><polygon points="142 600 142 525 340.25 525 359 562.5 340.25 600" fill="#4C72B7"/><rect x="521" y="543.75" width="3154" height="37.5" fill="#4C72B7"/><polygon points="379 600 397.75 562.5 379 525 522 525 522 600" fill="#4C72B7"/><rect x="75" y="693.75" width="367" height="37.5" fill="#4C72B7"/><style >
.legend { font: 60.0px sans-serif; fill: black; dominant-baseline: central; }
</style><style >
.exonnr { text-anchor: middle; dominant-baseline: central; font: 37.5px sans-serif; fill: white;}
</style></svg>
