<svg xmlns="http://www.w3.org/2000/svg" width="19218.75" height="400"><rect x="100" y="125.0" width="976.0" height="50.0" fill="#4C72B7"/><polygon points="1075.0 200 1075.0 100 1075.0 100 1100.0 150.0 1075.0 200" fill="#4C72B7"/><polygon points="1150.0 200 1175.0 150.0 1150.0 100 2293.75 100 2318.75 100 2293.75 150.0 2318.75 200 2293.75 200" fill="#4C72B7"/><rect x="1743.75" y="100" width="5.0" height="100" fill="red"/><polygon points="2393.75 200 2368.75 150.0 2393.75 100 4006.25 100 4006.25 200" fill="#4C72B7"/><polygon points="4056.25 200 4056.25 100 5087.5 100 5112.5 150.0 5087.5 200" fill="#4C72B7"/><polygon points="5162.5 200 5187.5 150.0 5162.5 100 5625.0 100 5625.0 200" fill="#4C72B7"/><polygon points="5675.0 200 5675.0 100 6087.5 100 6087.5 200" fill="#4C72B7"/><rect x="6586.5" y="125.0" width="12632.25" height="50.0" fill="#4C72B7"/><polygon points="6137.5 200 6137.5 100 6587.5 100 6587.5 200" fill="#4C72B7"/><rect x="100" y="300" width="100" height="100" fill="red"/><text class="legend" x="250.0" y="350.0">100G>T</text><style >
.legend { font: 80.0px sans-serif; fill: black; dominant-baseline: central; }
</style><style >
.exonnr { text-anchor: middle; dominant-baseline: central; font: 50.0px sans-serif; fill: white;}
</style></svg>
