<svg xmlns="http://www.w3.org/2000/svg" width="5821.0" height="400"><polygon points="100.0 200 100.0 100 101.0 100 126.0 150.0 101.0 200" fill="#4C72B7"/><polygon points="176.0 200 201.0 150.0 176.0 100 1366.5 100 1391.5 100 1366.5 150.0 1391.5 200 1366.5 200" fill="#4C72B7"/><rect x="793.5" y="100" width="6.5" height="100" fill="#BA1C30"/><polygon points="1466.5 200 1441.5 150.0 1466.5 100 3144.5 100 3144.5 200" fill="#4C72B7"/><polygon points="3194.5 200 3194.5 100 4268.0 100 4293.0 150.0 4268.0 200" fill="#4C72B7"/><polygon points="4343.0 200 4368.0 150.0 4343.0 100 4824.0 100 4824.0 200" fill="#4C72B7"/><polygon points="4874.0 200 4874.0 100 5303.0 100 5303.0 200" fill="#4C72B7"/><polygon points="5353.0 200 5353.0 100 5821.0 100 5821.0 200" fill="#4C72B7"/><rect x="100" y="300" width="100" height="100" fill="#BA1C30"/><text class="legend" x="250.0" y="350.0">c.100G>T</text><style >
.legend { font: 80.0px sans-serif; fill: black; dominant-baseline: central; }
</style><style >
.exonnr { text-anchor: middle; dominant-baseline: central; font: 50.0px sans-serif; fill: white;}
</style></svg>
